<?xml version="1.0" encoding="UTF-8"?>
<svg version="1.1" xmlns="http://www.w3.org/2000/svg" width="1024" height="1024">
<path d="M0 0 C337.92 0 675.84 0 1024 0 C1024 337.92 1024 675.84 1024 1024 C686.08 1024 348.16 1024 0 1024 C0 686.08 0 348.16 0 0 Z " fill="#FAF9F8" transform="translate(0,0)"/>
<path d="M0 0 C0.63470215 0.28182129 1.2694043 0.56364258 1.92333984 0.85400391 C18.24708922 8.20598354 32.2306571 18.5267578 45 31 C45.84820313 31.78632812 46.69640625 32.57265625 47.5703125 33.3828125 C73.75415946 58.25336306 89.98857527 96.99805805 91.08998299 132.93606949 C91.12219883 136.22228877 91.12378544 139.50709505 91.11352539 142.79345703 C91.11367142 144.03362076 91.11381744 145.27378448 91.1139679 146.55152893 C91.11339445 149.92068863 91.1084116 153.28978552 91.10139394 156.65893412 C91.09510289 160.19163735 91.09455208 163.72434159 91.09336853 167.25704956 C91.09027207 173.93263431 91.08208158 180.60820249 91.07201904 187.28377998 C91.06080534 194.88966898 91.05533425 202.4955588 91.05032361 210.10145402 C91.0398974 225.73431224 91.02233087 241.36715398 91 257 C91.69939949 256.99631283 92.39879898 256.99262566 93.1193924 256.98882675 C110.2521238 256.89992744 127.38479554 256.83402673 144.51770782 256.79275131 C152.80355692 256.77225287 161.08925071 256.74438048 169.375 256.69824219 C176.60908869 256.65797966 183.84306475 256.63247521 191.0772624 256.62364602 C194.89666691 256.61849681 198.71574963 256.60667168 202.53504944 256.57707977 C254.0622005 256.1936918 299.53673067 269.85173311 336.9375 306.5625 C372.52106643 342.25917642 385.34797307 389.70517074 385.31689453 438.92797852 C385.04894882 487.43074119 366.08255197 530.80756619 332.6875 565.625 C294.63130717 602.534109 245.48140285 613.62163098 194.01329923 613.30418181 C190.37525311 613.28506929 186.73719442 613.283638 183.09910583 613.28010559 C176.25035272 613.27088434 169.40174807 613.24640936 162.55305952 613.21605712 C154.7389112 613.18219859 146.92475474 613.16594915 139.110551 613.15097082 C123.07361551 613.11984737 107.03682711 613.06728642 91 613 C91.00276538 613.6918574 91.00553076 614.38371481 91.00837994 615.09653759 C91.07499298 632.02795261 91.12445078 648.95932545 91.15543652 665.89084148 C91.17082402 674.07921276 91.19175565 682.2674959 91.22631836 690.45581055 C91.2564721 697.60307231 91.27563375 704.75027017 91.28226548 711.8975938 C91.28613439 715.67268698 91.29505115 719.44759755 91.31719017 723.22263145 C91.57270903 768.61937725 82.71453067 810.4687782 51.0546875 844.7578125 C49.28310243 846.69106313 47.60217659 848.66289334 45.9375 850.6875 C42.63053822 854.55010306 38.92204606 857.77450932 35 861 C34.50999512 861.40766602 34.01999023 861.81533203 33.51513672 862.23535156 C-1.44799776 891.17546954 -42.39377383 900.69772555 -87.11767578 897.79785156 C-92.51026726 897.26848066 -97.74425627 896.30718274 -103 895 C-103.79970215 894.80132324 -104.5994043 894.60264648 -105.42333984 894.39794922 C-134.83997794 886.80637531 -158.81348456 872.17135301 -180.61474609 851.32226562 C-181.81291489 850.17857825 -183.02441367 849.04888643 -184.23828125 847.921875 C-212.99385863 820.491705 -225.91280726 780.37783722 -227.10623932 741.54291534 C-227.25885446 733.0671169 -227.23757176 724.59136229 -227.20278788 716.11469316 C-227.19005908 712.47396165 -227.18909296 708.8332247 -227.18673706 705.19247437 C-227.18058597 698.33664428 -227.16426404 691.48088001 -227.14403808 684.62507856 C-227.12147739 676.80368663 -227.1106356 668.98229111 -227.10064721 661.16087461 C-227.07989004 645.10721198 -227.04484186 629.05361456 -227 613 C-227.66608874 613.00276538 -228.33217749 613.00553076 -229.01845074 613.00837994 C-245.3239749 613.07501121 -261.62945521 613.12445945 -277.93508434 613.15543652 C-285.82078672 613.17081995 -293.70639749 613.19174349 -301.59204102 613.22631836 C-308.47561425 613.25648489 -315.35912106 613.27563668 -322.24275857 613.28226548 C-325.87812655 613.2861323 -329.51330474 613.29503491 -333.14861107 613.31719017 C-375.81290993 613.5667468 -416.31553076 605.23508979 -451 579 C-451.90621094 578.31679688 -452.81242187 577.63359375 -453.74609375 576.9296875 C-489.13016375 549.09490384 -511.95516603 506.40547581 -518 462 C-518.09571289 461.31325195 -518.19142578 460.62650391 -518.29003906 459.91894531 C-519.33529681 451.19347834 -519.24373678 442.39998892 -519.25 433.625 C-519.25067474 432.77618256 -519.25134949 431.92736511 -519.25204468 431.05282593 C-519.2361524 418.47044571 -518.82966387 406.31015189 -516 394 C-515.83371094 393.23880859 -515.66742187 392.47761719 -515.49609375 391.69335938 C-508.40856436 359.90447757 -493.79585081 331.31101128 -471 308 C-470.05619939 306.99581715 -469.11350742 305.99059127 -468.171875 304.984375 C-442.6463587 278.10748252 -407.14933227 263.53997485 -371 258 C-369.88314819 257.82614273 -368.76629639 257.65228546 -367.61560059 257.47315979 C-361.63079669 256.73926604 -355.62775161 256.86906043 -349.60742188 256.88647461 C-348.26635744 256.88675712 -346.92529286 256.88659751 -345.58422852 256.8860321 C-341.96496923 256.88574661 -338.34574346 256.89160323 -334.72649193 256.89860606 C-330.93619331 256.9048809 -327.14589383 256.90544666 -323.35559082 256.90663147 C-316.1876581 256.90973265 -309.01974073 256.91792961 -301.85181475 256.92798096 C-293.68733687 256.93917987 -285.52285824 256.94466205 -277.3583746 256.94967639 C-260.57224076 256.96011329 -243.78612234 256.97768913 -227 257 C-227.00276538 256.35875813 -227.00553076 255.71751625 -227.00837994 255.0568428 C-227.07500596 239.36086769 -227.12445694 223.66494264 -227.15543652 207.96886063 C-227.17082113 200.37795136 -227.19174699 192.78713721 -227.22631836 185.19628906 C-227.25648121 178.57018802 -227.27563583 171.94415596 -227.28226548 165.31798816 C-227.28613291 161.81846482 -227.29503957 158.31913859 -227.31719017 154.81967926 C-227.5978551 108.61778624 -215.62310698 67.77505285 -183 34 C-182.14921875 33.08605469 -181.2984375 32.17210937 -180.421875 31.23046875 C-158.35236592 8.13677586 -129.00402537 -5.63443924 -98 -12 C-96.82179688 -12.24621094 -95.64359375 -12.49242187 -94.4296875 -12.74609375 C-62.97720345 -18.03682483 -28.97858969 -13.07747816 0 0 Z " fill="#0C0C0C" transform="translate(579,70)"/>
<path d="M0 0 C27.1940625 -0.0928125 27.1940625 -0.0928125 54.9375 -0.1875 C60.62991943 -0.21481201 66.32233887 -0.24212402 72.18725586 -0.27026367 C79.21984863 -0.28381348 79.21984863 -0.28381348 82.52784729 -0.28633118 C84.80378487 -0.29089238 87.07971589 -0.30134725 89.35560608 -0.31672668 C131.95385777 -0.58981706 169.07262849 13.3771222 200 43 C200.74378906 43.69222656 201.48757813 44.38445312 202.25390625 45.09765625 C231.22227928 72.85691458 247.31587644 114.55537979 248.2653656 154.26376343 C248.31331019 157.61897548 248.32437022 160.97309276 248.31567383 164.32861328 C248.31251041 166.86664765 248.33611079 169.40351413 248.36132812 171.94140625 C248.42060024 187.07963184 246.66944687 201.95956639 242.3125 216.5 C242.05903809 217.36254395 241.80557617 218.22508789 241.54443359 219.11376953 C232.88979244 247.55934774 217.97262719 272.0146467 197 293 C196.1440625 293.87914062 195.288125 294.75828125 194.40625 295.6640625 C177.82482466 311.77323206 156.10889969 323.32803003 134.25 330.4375 C133.56728027 330.66050781 132.88456055 330.88351562 132.18115234 331.11328125 C115.7582266 336.05502998 99.71529155 336.41227417 82.71484375 336.29296875 C80.5876082 336.2885458 78.46036936 336.28549274 76.33312988 336.28381348 C68.53453609 336.268225 60.73601265 336.22634189 52.9375 336.1875 C26.7334375 336.0946875 26.7334375 336.0946875 0 336 C-0.33 297.06 -0.66 258.12 -1 218 C-4.96 223.445 -4.96 223.445 -9 229 C-14.03256859 232.63109379 -17.68932624 234.78354555 -23.67407227 236.07006836 C-24.48425308 236.24557724 -25.2944339 236.42108612 -26.12916565 236.60191345 C-26.74654099 236.73328201 -27.36391632 236.86465057 -28 237 C-28.02339156 221.10096 -28.04100988 205.20192466 -28.05181217 189.3028717 C-28.05696185 181.92017033 -28.06397918 174.53747966 -28.07543945 167.15478516 C-28.08542693 160.71777718 -28.09186309 154.28077696 -28.09408849 147.84376144 C-28.09538871 144.43747751 -28.09843078 141.03121577 -28.10573006 137.62493896 C-28.11299753 133.81635222 -28.11398852 130.00781133 -28.11352539 126.19921875 C-28.11712067 125.07784012 -28.12071594 123.95646149 -28.12442017 122.80110168 C-28.11693103 117.10285629 -27.85795427 111.63530649 -27 106 C-19.96359966 106.37033686 -13.90400398 110.22602605 -8.90625 115 C-5.75535561 118.52472932 -3.45878432 121.90202613 -1 126 C-0.67 84.42 -0.34 42.84 0 0 Z " fill="#FAF9F8" transform="translate(670,337)"/>
<path d="M0 0 C2.0646134 0.00442635 4.1292302 0.0074773 6.19384766 0.00915527 C13.73865905 0.02470436 21.28339777 0.06658668 28.828125 0.10546875 C45.740625 0.16734375 62.653125 0.22921875 80.078125 0.29296875 C80.408125 41.54296875 80.738125 82.79296875 81.078125 125.29296875 C84.543125 120.34296875 84.543125 120.34296875 88.078125 115.29296875 C94.11311855 110.68290424 100.27327199 106.29296875 108.078125 106.29296875 C108.078125 149.52296875 108.078125 192.75296875 108.078125 237.29296875 C96.68765066 233.87582645 90.00584862 230.71092816 83.078125 221.29296875 C82.418125 219.97296875 81.758125 218.65296875 81.078125 217.29296875 C80.583125 276.19796875 80.583125 276.19796875 80.078125 336.29296875 C54.956875 336.41671875 54.956875 336.41671875 29.328125 336.54296875 C24.08067383 336.57938477 18.83322266 336.61580078 13.42675781 336.65332031 C6.91552734 336.67138672 6.91552734 336.67138672 3.84735107 336.67474365 C1.74819526 336.68080273 -0.35094851 336.69469311 -2.45001221 336.715271 C-20.41224714 336.88223811 -37.3603775 335.07576001 -54.421875 329.16796875 C-55.27515381 328.87720459 -56.12843262 328.58644043 -57.00756836 328.28686523 C-76.00066504 321.55378893 -92.67135495 311.38730334 -107.921875 298.29296875 C-109.18837891 297.21208984 -109.18837891 297.21208984 -110.48046875 296.109375 C-126.13503824 282.40857394 -138.36568976 265.72840159 -147.921875 247.29296875 C-148.25670898 246.64924316 -148.59154297 246.00551758 -148.93652344 245.34228516 C-169.57191276 205.06936806 -172.93814979 155.8552942 -159.70800781 112.70068359 C-153.74279133 94.43081872 -145.38107742 77.70430511 -133.921875 62.29296875 C-133.27089844 61.41640625 -132.61992187 60.53984375 -131.94921875 59.63671875 C-113.63439094 36.20503153 -90.1129048 18.03440903 -61.921875 8.29296875 C-61.26638672 8.06625488 -60.61089844 7.83954102 -59.93554688 7.60595703 C-40.23090633 0.96346391 -20.65974244 -0.15038438 0 0 Z " fill="#FAF9F8" transform="translate(271.921875,336.70703125)"/>
<path d="M0 0 C52.47 0 104.94 0 159 0 C159 38.27255639 159 38.27255639 146.671875 51.55078125 C142.98184436 54.93330933 138.95132267 57.92674903 135 61 C165.69 61.33 196.38 61.66 228 62 C228.20054405 88.94866334 228.20054405 88.94866334 228.24414062 100.59179688 C228.27382728 108.48216851 228.30863021 116.37229779 228.37719727 124.26245117 C228.43222893 130.63622796 228.46156794 137.0096878 228.47438622 143.38368416 C228.48350016 145.79410848 228.50128945 148.20451896 228.52865028 150.61480522 C229.0172496 195.51482867 213.36818277 234.91174417 182 267 C181.33871094 267.72316406 180.67742187 268.44632813 179.99609375 269.19140625 C156.7274901 294.06820712 119.81798623 308.13217882 86.3671875 309.25 C71.45696969 309.5819749 57.43465045 308.84082517 43 305 C42.25314941 304.80696289 41.50629883 304.61392578 40.73681641 304.41503906 C23.0196857 299.66289962 5.11264791 290.7493925 -9 279 C-9.5170752 278.5786377 -10.03415039 278.15727539 -10.56689453 277.72314453 C-42.13129161 251.98742628 -64.09139563 215.84679576 -69.78652287 175.14605522 C-70.22078221 170.7805079 -70.12908415 166.39866666 -70.11352539 162.01586914 C-70.11367142 160.93220062 -70.11381744 159.8485321 -70.1139679 158.73202515 C-70.11327376 155.1663815 -70.10550477 151.60079072 -70.09765625 148.03515625 C-70.0957903 145.55651376 -70.09436723 143.0778709 -70.09336853 140.59922791 C-70.08955732 134.08746313 -70.07973897 127.57572078 -70.06866455 121.06396484 C-70.05597942 113.2444904 -70.05204154 105.42500398 -70.04621124 97.60552216 C-70.03652647 85.73699918 -70.01736011 73.86852541 -70 62 C-23.965 61.505 -23.965 61.505 23 61 C20.36 59.02 17.72 57.04 15 55 C5.98264685 46.84144238 1.98005953 38.8803572 0 27 C0 18.09 0 9.18 0 0 Z " fill="#F9F9F7" transform="translate(432,621)"/>
<path d="M0 0 C1.09828125 0.52207031 2.1965625 1.04414062 3.328125 1.58203125 C38.07968397 19.17179817 65.77323757 53.14385084 78.13720703 89.82592773 C84.52275006 109.89307914 86.31213343 129.52741654 86.1953125 150.46875 C86.1923626 152.25943883 86.19032801 154.0501294 86.18920898 155.84082031 C86.1788313 162.39390694 86.15090951 168.94695637 86.125 175.5 C86.08375 190.185 86.0425 204.87 86 220 C55.31 220.33 24.62 220.66 -7 221 C-3.7 223.64 -0.4 226.28 3 229 C18.41624112 247.03409338 16 262.95881151 16 288 C-36.47 288 -88.94 288 -143 288 C-143 241.15539112 -143 241.15539112 -128.25 226 C-126.21705515 224.0240536 -124.38791772 222.59194515 -122 221 C-122.9335733 220.98969254 -123.86714661 220.97938507 -124.82901001 220.96876526 C-133.68382382 220.87044869 -142.53857639 220.76766722 -151.39328957 220.66066074 C-155.94413738 220.6058047 -160.49499188 220.55245032 -165.04589844 220.50268555 C-169.44854929 220.45448408 -173.85113401 220.40213208 -178.25370407 220.34705925 C-179.92235005 220.32688498 -181.59101396 220.30813551 -183.25969315 220.29092598 C-193.21464589 220.18716744 -203.07553849 219.85068063 -213 219 C-213.09335466 206.45475271 -213.1640933 193.90959027 -213.20724869 181.36406422 C-213.2279782 175.53644713 -213.25602301 169.70907054 -213.30175781 163.8815918 C-213.34574433 158.24051799 -213.3692466 152.59967307 -213.37950897 146.95844078 C-213.38680684 144.82383313 -213.40105228 142.68923566 -213.42292023 140.55472755 C-213.69010813 113.35212691 -208.04481097 88.89383204 -195 65 C-194.4225 63.93007812 -193.845 62.86015625 -193.25 61.7578125 C-186.38347655 49.51887024 -177.62790103 39.10718161 -168 29 C-167.29488281 28.23042969 -166.58976562 27.46085937 -165.86328125 26.66796875 C-147.50141646 7.25685454 -121.84937327 -5.95728937 -96 -12 C-95.36642578 -12.14953125 -94.73285156 -12.2990625 -94.08007812 -12.453125 C-61.98879878 -19.71671213 -29.28666162 -14.07654229 0 0 Z " fill="#F9F9F7" transform="translate(575,108)"/>
<path d="M0 0 C52.47 0 104.94 0 159 0 C159 43.56 159 87.12 159 132 C106.53 132 54.06 132 0 132 C0 88.44 0 44.88 0 0 Z " fill="#FAF9F8" transform="translate(432,442)"/>
<path d="M0 0 C0.66 0 1.32 0 2 0 C2.08708752 4.2498709 2.14042181 8.49951239 2.1875 12.75 C2.22520508 14.55984375 2.22520508 14.55984375 2.26367188 16.40625 C2.27333984 17.56640625 2.28300781 18.7265625 2.29296875 19.921875 C2.3086792 20.99018555 2.32438965 22.05849609 2.34057617 23.15917969 C1.95309635 26.3912336 1.32349645 27.7432497 -1 30 C-3.32275177 30.40047444 -5.65739357 30.7397104 -8 31 C-8.33 31.66 -8.66 32.32 -9 33 C-6.69 33.33 -4.38 33.66 -2 34 C-2 34.33 -2 34.66 -2 35 C-9.66925845 35.13281026 -17.33855352 35.26331401 -25.00789642 35.39115143 C-28.57201512 35.45062695 -32.13611886 35.51079442 -35.70019531 35.57275391 C-50.49801314 35.82955212 -65.29243186 36.0763469 -80.09326172 35.98706055 C-97.17000974 35.65824791 -97.17000974 35.65824791 -114 38 C-114 38.33 -114 38.66 -114 39 C-115.13953125 39.20753906 -116.2790625 39.41507812 -117.453125 39.62890625 C-148.11864034 45.48227902 -173.58492475 58.34942254 -196 80 C-196.91394531 80.85078125 -197.82789063 81.7015625 -198.76953125 82.578125 C-225.31467976 107.94602086 -239.9819159 143.10941236 -245 179 C-245.2784375 180.80404297 -245.2784375 180.80404297 -245.5625 182.64453125 C-250.86996981 226.53859584 -238.71051652 272.81546062 -212 308 C-211.35675781 308.85335938 -210.71351563 309.70671875 -210.05078125 310.5859375 C-187.30636189 339.83535307 -156.37466767 360.60108738 -120 369 C-118.44606285 369.37315338 -118.44606285 369.37315338 -116.86073303 369.75384521 C-104.48418608 372.42094051 -92.307997 372.47666898 -79.6875 372.51171875 C-77.37865261 372.52859889 -75.06981423 372.54675351 -72.76098633 372.56611633 C-66.73765885 372.61326043 -60.71436787 372.64329878 -54.69091797 372.66955566 C-48.52303866 372.69954238 -42.35528477 372.74600968 -36.1875 372.79101562 C-24.12506609 372.87664299 -12.06260609 372.94416703 0 373 C-0.00444122 372.21517242 -0.00888245 371.43034485 -0.01345825 370.62173462 C-0.05348917 363.23486042 -0.08396099 355.84803862 -0.10362434 348.46108437 C-0.11407321 344.66313688 -0.12825236 340.86527882 -0.15087891 337.06738281 C-0.17256821 333.40398654 -0.18456031 329.74067643 -0.18975449 326.07722092 C-0.19345731 324.67773456 -0.20068777 323.27825305 -0.21146011 321.87880325 C-0.22592225 319.92266669 -0.22681647 317.96644391 -0.22705078 316.01025391 C-0.231492 314.8955069 -0.23593323 313.78075989 -0.24050903 312.63223267 C0 310 0 310 2 308 C2.04631753 316.4231212 2.08186618 324.84618929 2.10362434 333.26940632 C2.11406657 337.18054512 2.12823372 341.09159686 2.15087891 345.00268555 C2.17259173 348.77631169 2.18456532 352.54985404 2.18975449 356.32353783 C2.19345306 357.76406359 2.20067536 359.20458471 2.21146011 360.64507484 C2.22595347 362.66088014 2.22681674 364.67676956 2.22705078 366.69262695 C2.231492 367.84068314 2.23593323 368.98873932 2.24050903 370.17158508 C2 373 2 373 0 376 C-2.83727325 376.26667539 -5.45383045 376.34791234 -8.2890625 376.29296875 C-9.51669815 376.28660149 -9.51669815 376.28660149 -10.76913452 376.28010559 C-13.38808836 376.26328679 -16.00627802 376.22562974 -18.625 376.1875 C-20.3984264 376.17245726 -22.17186484 376.15876814 -23.9453125 376.14648438 C-28.2971703 376.11337292 -32.64845551 376.06156952 -37 376 C-37.33 377.65 -37.66 379.3 -38 381 C-46.74942398 381.82087305 -55.410217 382.13023389 -64.19646454 382.07516479 C-66.28969835 382.06215619 -68.38286739 382.05582689 -70.47613525 382.05102539 C-74.90078674 382.03974343 -79.32538257 382.02042538 -83.75 382 C-88.92388745 381.97636224 -94.09774654 381.95605655 -99.27167511 381.94406128 C-101.33527121 381.93757575 -103.39877564 381.92508384 -105.46234131 381.91235352 C-106.70163391 381.90905029 -107.94092651 381.90574707 -109.21777344 381.90234375 C-110.31329529 381.89710693 -111.40881714 381.89187012 -112.53753662 381.88647461 C-114.94493984 381.72034257 -114.94493984 381.72034257 -116 383 C-153.79916678 385.49436126 -194.03273734 371.66702775 -224 349 C-224.90621094 348.31679688 -225.81242187 347.63359375 -226.74609375 346.9296875 C-262.13016375 319.09490384 -284.95516603 276.40547581 -291 232 C-291.09571289 231.31325195 -291.19142578 230.62650391 -291.29003906 229.91894531 C-292.33529681 221.19347834 -292.24373678 212.39998892 -292.25 203.625 C-292.25067474 202.77618256 -292.25134949 201.92736511 -292.25204468 201.05282593 C-292.2361524 188.47044571 -291.82966387 176.31015189 -289 164 C-288.83371094 163.23880859 -288.66742188 162.47761719 -288.49609375 161.69335938 C-281.40856436 129.90447757 -266.79585081 101.31101128 -244 78 C-243.05619939 76.99581715 -242.11350742 75.99059127 -241.171875 74.984375 C-215.6463587 48.10748252 -180.14933227 33.53997485 -144 28 C-142.88314819 27.82614273 -141.76629639 27.65228546 -140.61560059 27.47315979 C-134.63079669 26.73926604 -128.62775161 26.86906043 -122.60742188 26.88647461 C-121.26635744 26.88675712 -119.92529286 26.88659751 -118.58422852 26.8860321 C-114.96496923 26.88574661 -111.34574346 26.89160323 -107.72649193 26.89860606 C-103.93619331 26.9048809 -100.14589383 26.90544666 -96.35559082 26.90663147 C-89.1876581 26.90973265 -82.01974073 26.91792961 -74.85181475 26.92798096 C-66.68733687 26.93917987 -58.52285824 26.94466205 -50.3583746 26.94967639 C-33.57223934 26.96011329 -16.78612522 26.97844361 0 27 C0 18.09 0 9.18 0 0 Z " fill="#0D0D0D" transform="translate(352,300)"/>
<path d="M0 0 C13.40612586 -0.09341879 26.81217201 -0.16412498 40.21855927 -0.20724869 C46.44628036 -0.22796457 52.67377586 -0.25598338 58.90136719 -0.30175781 C64.93148457 -0.34579429 70.96138745 -0.36925672 76.99165344 -0.37950897 C79.27170683 -0.38679814 81.5517509 -0.40102529 83.83171082 -0.42292023 C132.67173684 -0.87251711 176.85636469 15.12857247 211.9375 49.5625 C247.52106643 85.25917642 260.34797307 132.70517074 260.31689453 181.92797852 C260.04894882 230.43074119 241.08255197 273.80756619 207.6875 308.625 C169.63130717 345.534109 120.48140285 356.62163098 69.01329923 356.30418181 C65.37525311 356.28506929 61.73719442 356.283638 58.09910583 356.28010559 C51.25035272 356.27088434 44.40174807 356.24640936 37.55305952 356.21605712 C29.7389112 356.18219859 21.92475474 356.16594915 14.110551 356.15097082 C-1.92639926 356.11984735 -17.96314568 356.0649643 -34 356 C-34 370.19 -34 384.38 -34 399 C-36.23153147 394.53693706 -36.27372382 391.20878526 -36.23046875 386.3671875 C-36.23001053 385.53414093 -36.22955231 384.70109436 -36.2290802 383.84280396 C-36.22606472 382.08610607 -36.2181995 380.32941069 -36.20581055 378.57275391 C-36.18751923 375.87783388 -36.18530121 373.18325697 -36.18554688 370.48828125 C-36.18063269 368.78124702 -36.1748048 367.07421512 -36.16796875 365.3671875 C-36.16685593 364.55885468 -36.1657431 363.75052185 -36.16459656 362.91769409 C-36.1160858 357.23217159 -36.1160858 357.23217159 -35 355 C-27.86584084 353.45334597 -20.1346776 353.79775127 -12.8671875 353.68359375 C-11.74933868 353.66281265 -10.63148987 353.64203156 -9.47976685 353.62062073 C-5.94490087 353.55577315 -2.40996718 353.49654465 1.125 353.4375 C3.53646505 353.39425301 5.94792351 353.35063686 8.359375 353.30664062 C14.23951389 353.20015918 20.11971859 353.09827835 26 353 C25.67 351.68 25.34 350.36 25 349 C7.18 348.67 -10.64 348.34 -29 348 C-29 347.67 -29 347.34 -29 347 C-27.88374237 346.99413376 -26.76748474 346.98826752 -25.61740112 346.98222351 C-14.99906357 346.92453412 -4.3809218 346.85154069 6.23721504 346.76428509 C11.69360957 346.71991897 17.14993518 346.68059271 22.60644531 346.65356445 C27.89103503 346.62718932 33.1753545 346.58655776 38.45977402 346.53681374 C40.45672061 346.52037256 42.45371369 346.50871907 44.45071793 346.50238609 C62.00608491 346.44118809 79.99468398 345.48455573 96.875 340.25 C97.73029297 339.99468506 98.58558594 339.73937012 99.46679688 339.47631836 C107.61448901 336.96168295 115.35048222 333.74997016 123 330 C124.08152344 329.47921875 125.16304687 328.9584375 126.27734375 328.421875 C141.11125357 320.86739929 154.27474308 310.75251591 166 299 C166.93199219 298.07960938 167.86398437 297.15921875 168.82421875 296.2109375 C199.32305354 264.62441246 213.50247871 220.59263776 213.3125 177.4375 C213.31034485 176.55637543 213.3081897 175.67525085 213.30596924 174.76742554 C213.12432817 128.45052868 198.41621425 87.58004294 166 54 C165.46141357 53.43732422 164.92282715 52.87464844 164.36791992 52.29492188 C160.35820419 48.18331669 156.16673568 44.55406704 151.5625 41.125 C150.87438232 40.61179199 150.18626465 40.09858398 149.47729492 39.56982422 C125.4570583 22.02465536 96.66123707 10.96335822 66.81054688 10.79467773 C65.71697876 10.78477814 64.62341064 10.77487854 63.4967041 10.76467896 C59.9040743 10.73324565 56.3114313 10.70837873 52.71875 10.68359375 C50.21911284 10.66300852 47.71947903 10.64201164 45.21984863 10.62062073 C39.32692094 10.57118109 33.43397296 10.52587422 27.54099703 10.48259836 C20.16792127 10.42819755 12.79490123 10.36732849 5.421875 10.30664062 C-7.71871227 10.19925747 -20.85933793 10.0977688 -34 10 C-34 13.63 -34 17.26 -34 21 C-36.71232939 16.93150591 -36.30699887 14.83523216 -36 10 C-34 8 -34 8 -31.36776733 7.75949097 C-30.25302032 7.76393219 -29.13827332 7.76837341 -27.98974609 7.77294922 C-26.09801163 7.77317581 -26.09801163 7.77317581 -24.1680603 7.77340698 C-22.78651778 7.78362102 -21.40497685 7.79405303 -20.0234375 7.8046875 C-18.61382243 7.80841712 -17.20420477 7.81126433 -15.79458618 7.81326294 C-12.08240618 7.82090345 -8.37038239 7.84055539 -4.65826416 7.8626709 C-0.87115594 7.88312041 2.9159775 7.89226273 6.703125 7.90234375 C14.13548793 7.923801 21.56772208 7.95794184 29 8 C29.66 5.69 30.32 3.38 31 1 C30.47438477 1.16298584 29.94876953 1.32597168 29.40722656 1.49389648 C26.38635788 2.12901421 23.57181318 2.11169006 20.484375 2.09765625 C19.23398437 2.09443359 17.98359375 2.09121094 16.6953125 2.08789062 C14.74238281 2.07532227 14.74238281 2.07532227 12.75 2.0625 C10.77386719 2.05573242 10.77386719 2.05573242 8.7578125 2.04882812 C5.50516259 2.03704316 2.25260416 2.02059011 -1 2 C-0.67 1.34 -0.34 0.68 0 0 Z " fill="#0C0C0C" transform="translate(704,327)"/>
<path d="M0 0 C0.33 0 0.66 0 1 0 C1.01030746 0.94911758 1.02061493 1.89823517 1.03123474 2.87611389 C1.12914136 11.83612617 1.23189108 20.79607168 1.33933926 29.75597477 C1.39442015 34.36195134 1.44781573 38.9679344 1.49731445 43.57397461 C1.54517768 48.02198497 1.5975271 52.46992229 1.65294075 56.91784477 C1.67326522 58.61181244 1.69199402 60.30580006 1.70907402 61.99980354 C1.73333886 64.37892966 1.76336113 66.75792055 1.79467773 69.13696289 C1.80331093 70.17922279 1.80331093 70.17922279 1.81211853 71.24253845 C1.87684771 75.59038145 2.30675421 79.71877788 3 84 C3.33 84 3.66 84 4 84 C4.13462646 84.81283447 4.13462646 84.81283447 4.27197266 85.64208984 C9.40596923 116.0049164 20.42030341 143.69245772 41 167 C41.83015625 167.96292969 42.6603125 168.92585937 43.515625 169.91796875 C63.50582053 192.73584675 90.47844609 208.94111241 120 216 C121.26070313 216.31839844 122.52140625 216.63679687 123.8203125 216.96484375 C160.22103594 225.24627171 199.7908002 216.37760531 230.97509766 196.75732422 C239.76339933 191.03254224 247.46469204 184.26417244 255 177 C255.64324219 176.40832031 256.28648437 175.81664062 256.94921875 175.20703125 C279.64920487 153.77697442 293.6507094 122.14843703 298.70800781 91.81542969 C298.92215332 90.54747559 298.92215332 90.54747559 299.140625 89.25390625 C299.25954102 88.50439697 299.37845703 87.7548877 299.50097656 86.98266602 C300 85 300 85 302 82 C302.45394552 79.72087062 302.45394552 79.72087062 302.625 77.3125 C302.69976563 76.50425781 302.77453125 75.69601562 302.8515625 74.86328125 C302.90054687 74.24839844 302.94953125 73.63351562 303 73 C303.99 73.33 304.98 73.66 306 74 C306.33 73.34 306.66 72.68 307 72 C307.99 72.33 308.98 72.66 310 73 C309.99476318 73.60062256 309.98952637 74.20124512 309.98413086 74.82006836 C309.96341986 77.52586838 309.95035875 80.23165177 309.9375 82.9375 C309.92912109 83.88302734 309.92074219 84.82855469 309.91210938 85.80273438 C309.90888672 86.70185547 309.90566406 87.60097656 309.90234375 88.52734375 C309.89710693 89.35999756 309.89187012 90.19265137 309.88647461 91.05053711 C309.78356708 93.00516798 309.78356708 93.00516798 311 94 C313.46336392 131.32943791 300.16866678 171.51708071 275.6484375 199.703125 C274.12986552 201.39945624 272.59918516 203.08505206 271.0546875 204.7578125 C269.28310243 206.69106313 267.60217659 208.66289334 265.9375 210.6875 C262.63053822 214.55010306 258.92204606 217.77450932 255 221 C254.50999512 221.40766602 254.01999023 221.81533203 253.51513672 222.23535156 C218.55200224 251.17546954 177.60622617 260.69772555 132.88232422 257.79785156 C127.48973274 257.26848066 122.25574373 256.30718274 117 255 C115.80044678 254.70198486 115.80044678 254.70198486 114.57666016 254.39794922 C85.16002206 246.80637531 61.18651544 232.17135301 39.38525391 211.32226562 C38.18708511 210.17857825 36.97558633 209.04888643 35.76171875 207.921875 C13.90776574 187.07521842 -4.12683246 152.69465161 -5.29193115 122.22453308 C-5.32100103 120.55762376 -5.34011885 118.8905186 -5.35058594 117.22338867 C-5.36384415 116.30337067 -5.37710236 115.38335266 -5.39076233 114.43545532 C-5.4314607 111.42965681 -5.45845891 108.42392829 -5.484375 105.41796875 C-5.50819811 103.31430973 -5.53255985 101.21065674 -5.55743408 99.10700989 C-5.60715498 94.71534013 -5.64999577 90.32367115 -5.68798828 85.93188477 C-5.73727692 80.30501973 -5.80442063 74.67853142 -5.87673569 69.05192089 C-5.93041164 64.71544221 -5.97438621 60.37890647 -6.01544952 56.04229164 C-6.03632318 53.96703095 -6.06028206 51.89179889 -6.08739471 49.81661034 C-6.12383278 46.92094413 -6.14713412 44.02545968 -6.16699219 41.12963867 C-6.18039139 40.27500534 -6.19379059 39.42037201 -6.20759583 38.5398407 C-6.22261534 34.25369193 -6.0852436 30.86946095 -4 27 C-3.4743042 26.51619873 -2.9486084 26.03239746 -2.40698242 25.53393555 C-0.34179501 23.28240466 -0.56792656 21.46762401 -0.48828125 18.45703125 C-0.45283203 17.38388672 -0.41738281 16.31074219 -0.38085938 15.20507812 C-0.35830078 14.08552734 -0.33574219 12.96597656 -0.3125 11.8125 C-0.27833984 10.68134766 -0.24417969 9.55019531 -0.20898438 8.38476562 C-0.12643686 5.5899426 -0.05730818 2.79543602 0 0 Z " fill="#0D0D0D" transform="translate(359,710)"/>
<path d="M0 0 C0 17.82 0 35.64 0 54 C-5.61 54 -11.22 54 -17 54 C-17.06930307 49.46449918 -17.12890057 44.93087437 -17.16479492 40.39526367 C-17.17977543 38.85613745 -17.2001671 37.31705312 -17.22631836 35.77807617 C-17.56970979 15.03319367 -17.56970979 15.03319367 -10.125 7.125 C-9.46757813 6.40570313 -8.81015625 5.68640625 -8.1328125 4.9453125 C-2.71084337 0 -2.71084337 0 0 0 Z " fill="#FAF9F8" transform="translate(660,341)"/>
<path d="M0 0 C8.37319679 4.78468388 12.7226435 8.87395649 16.19067383 17.83447266 C17.88291251 24.45334649 17.4045291 31.34321337 17.25 38.125 C17.2298943 39.66924754 17.21165076 41.2135205 17.1953125 42.7578125 C17.15509199 46.50636376 17.07676485 50.25131632 17 54 C11.39 54 5.78 54 0 54 C0 36.18 0 18.36 0 0 Z " fill="#F9F9F8" transform="translate(362,341)"/>
<path d="M0 0 C5.94 0 11.88 0 18 0 C18.1087639 4.43817123 18.18770006 8.87362921 18.25 13.3125 C18.30027344 15.17745117 18.30027344 15.17745117 18.3515625 17.08007812 C18.46095176 27.49940508 16.96640493 36.81759935 9.5859375 44.62890625 C6.77382339 47.06006894 3.7836611 49 0 49 C0 32.83 0 16.66 0 0 Z " fill="#FAF9F8" transform="translate(362,622)"/>
<path d="M0 0 C5.94 0 11.88 0 18 0 C18 15.84 18 31.68 18 48 C10.75598743 45.58532914 6.20229055 42.79397355 2.625 35.9375 C0.26390647 30.91760984 -0.12374315 26.10980488 -0.09765625 20.60546875 C-0.09443359 19.40341797 -0.09121094 18.20136719 -0.08789062 16.96289062 C-0.07951172 15.71701172 -0.07113281 14.47113281 -0.0625 13.1875 C-0.05798828 11.92228516 -0.05347656 10.65707031 -0.04882812 9.35351562 C-0.03706262 6.2356568 -0.01912774 3.11782235 0 0 Z " fill="#FAF9F8" transform="translate(642,622)"/>
<path d="M0 0 C0.33 0 0.66 0 1 0 C1 33.33 1 66.66 1 101 C5.62 101 10.24 101 15 101 C15 101.33 15 101.66 15 102 C12.5211787 102.19389096 10.04219069 102.38040123 7.5625 102.5625 C6.50192383 102.64661133 6.50192383 102.64661133 5.41992188 102.73242188 C3.61572163 102.86190993 1.80768048 102.93521608 0 103 C-1.83587104 101.16412896 -1.12647525 98.59156872 -1.13552856 96.14822388 C-1.13350433 95.30726166 -1.1314801 94.46629944 -1.12939453 93.59985352 C-1.13114685 92.71844193 -1.13289917 91.83703033 -1.13470459 90.9289093 C-1.13912871 87.99555528 -1.1361809 85.06226096 -1.1328125 82.12890625 C-1.13348592 80.09162891 -1.13445627 78.05435165 -1.13571167 76.01707458 C-1.13718984 71.73378743 -1.13503229 67.45052107 -1.13037109 63.16723633 C-1.12470615 57.69661816 -1.12793139 52.22604939 -1.13394356 46.75543308 C-1.13757375 42.54047785 -1.13639876 38.32553413 -1.13381577 34.11057854 C-1.13315159 32.0953057 -1.13395699 30.0800318 -1.13629532 28.06476021 C-1.13885859 25.23137821 -1.1349285 22.39807357 -1.12939453 19.56469727 C-1.13141876 18.74195313 -1.13344299 17.91920898 -1.13552856 17.0715332 C-1.11494759 11.33182996 -0.6595915 5.70054788 0 0 Z " fill="#252525" transform="translate(361,226)"/>
<path d="M0 0 C3.05018899 -0.28603461 5.89638302 -0.37792773 8.94775391 -0.34057617 C10.33807579 -0.34123329 10.33807579 -0.34123329 11.75648499 -0.34190369 C14.83005606 -0.33980825 17.90308634 -0.31644162 20.9765625 -0.29296875 C23.10362449 -0.28737548 25.23069034 -0.28310412 27.35775757 -0.28010559 C32.96385313 -0.26863565 38.56971655 -0.23914995 44.17572021 -0.20599365 C49.89315653 -0.17533906 55.61063025 -0.16161012 61.328125 -0.14648438 C72.55218548 -0.11428234 83.77607346 -0.06306005 95 0 C95 0.33 95 0.66 95 1 C97.97 1.495 97.97 1.495 101 2 C101 2.33 101 2.66 101 3 C76.6958226 4.06510407 52.44145613 3.98120327 28.125 3.5625 C27.38027058 3.54968616 26.63554115 3.53687233 25.86824417 3.5236702 C16.57856276 3.36258528 7.28918458 3.18769072 -2 3 C-1.34 2.01 -0.68 1.02 0 0 Z " fill="#2E2E2E" transform="translate(673,673)"/>
<path d="M0 0 C0.66 0 1.32 0 2 0 C2.02312916 7.28421548 2.04091801 14.5684231 2.05181217 21.85266781 C2.05703975 25.23471813 2.06413511 28.6167434 2.07543945 31.9987793 C2.08834267 35.88329777 2.09322924 39.76780597 2.09765625 43.65234375 C2.10281754 44.87211411 2.10797882 46.09188446 2.11329651 47.34861755 C2.11337204 48.46970413 2.11344757 49.59079071 2.11352539 50.74584961 C2.115746 51.73846298 2.11796661 52.73107635 2.12025452 53.75376892 C2 56 2 56 1 57 C-0.66617115 57.04063832 -2.33388095 57.042721 -4 57 C-4.33 56.34 -4.66 55.68 -5 55 C-3.35 55 -1.7 55 0 55 C0 36.85 0 18.7 0 0 Z " fill="#020202" transform="translate(660,340)"/>
<path d="M0 0 C0.33 0 0.66 0 1 0 C1.33 10.23 1.66 20.46 2 31 C1.01 31 0.02 31 -1 31 C-1.19148936 9.27659574 -1.19148936 9.27659574 0 0 Z " fill="#161616" transform="translate(431,621)"/>
<path d="M0 0 C0.33 0 0.66 0 1 0 C1.33 5.61 1.66 11.22 2 17 C2.66 17 3.32 17 4 17 C3.46835452 21.78480933 2.76888381 22.23111619 -1 26 C-0.67 17.42 -0.34 8.84 0 0 Z " fill="#131313" transform="translate(354,435)"/>
<path d="M0 0 C0.33 0 0.66 0 1 0 C1.08089542 2.77141717 1.14044062 5.54047819 1.1875 8.3125 C1.21263672 9.09818359 1.23777344 9.88386719 1.26367188 10.69335938 C1.27333984 11.45068359 1.28300781 12.20800781 1.29296875 12.98828125 C1.3086792 13.68477783 1.32438965 14.38127441 1.34057617 15.09887695 C0.90238443 17.54489783 -0.13437358 18.42702086 -2 20 C-2.12074853 13.57349465 -1.90984106 7.36888739 -1 1 C-0.67 0.67 -0.34 0.34 0 0 Z " fill="#131313" transform="translate(669,804)"/>
<path d="M0 0 C6.93 0 13.86 0 21 0 C18 3 18 3 14.375 3.25 C11 3 11 3 10 2 C8.31816052 1.76712992 6.6287584 1.58735834 4.9375 1.4375 C4.01839844 1.35371094 3.09929688 1.26992188 2.15234375 1.18359375 C1.08693359 1.09271484 1.08693359 1.09271484 0 1 C0 0.67 0 0.34 0 0 Z " fill="#E6E6E5" transform="translate(567,442)"/>
<path d="M0 0 C0 0.99 0 1.98 0 3 C0.33 3.99 0.66 4.98 1 6 C-0.33333333 6.66666667 -1.66666667 7.33333333 -3 8 C-2.67 8.99 -2.34 9.98 -2 11 C-2.59793673 13.35188447 -3.25881795 15.68925595 -4 18 C-4.66 17.34 -5.32 16.68 -6 16 C-5.828125 14.046875 -5.828125 14.046875 -5.25 11.75 C-5.04890625 10.95078125 -4.8478125 10.1515625 -4.640625 9.328125 C-3.86147753 6.49658906 -3.09166967 3.72917417 -2 1 C-1.34 0.67 -0.68 0.34 0 0 Z " fill="#151515" transform="translate(73,435)"/>
<path d="M0 0 C-0.556875 0.12375 -1.11375 0.2475 -1.6875 0.375 C-4.03400894 0.91775403 -4.03400894 0.91775403 -6.125 2.125 C-10.47907071 3.45015196 -14.54931988 2.6395152 -19 2 C-19 1.67 -19 1.34 -19 1 C-6.51480638 -1.48063781 -6.51480638 -1.48063781 0 0 Z " fill="#181818" transform="translate(797,671)"/>
<path d="M0 0 C0.33 0 0.66 0 1 0 C1.33 4.95 1.66 9.9 2 15 C2.33 15 2.66 15 3 15 C3 17.64 3 20.28 3 23 C2.34 23.33 1.68 23.66 1 24 C-0.25248502 21.49502996 -0.11374406 19.79146726 -0.09765625 16.9921875 C-0.09443359 16.00605469 -0.09121094 15.01992188 -0.08789062 14.00390625 C-0.07951172 12.97136719 -0.07113281 11.93882812 -0.0625 10.875 C-0.05798828 9.83472656 -0.05347656 8.79445313 -0.04882812 7.72265625 C-0.03701952 5.14838038 -0.02055075 2.57421854 0 0 Z " fill="#1E1D1D" transform="translate(379,371)"/>
<path d="M0 0 C1.41702513 0.14230808 2.8336096 0.28900746 4.25 0.4375 C5.43335938 0.55931641 5.43335938 0.55931641 6.640625 0.68359375 C8.82364639 0.97634993 10.8773182 1.42064419 13 2 C13 2.99 13 3.98 13 5 C8.71 4.01 4.42 3.02 0 2 C0 1.34 0 0.68 0 0 Z " fill="#141313" transform="translate(465,960)"/>
<path d="M0 0 C0.9097643 3.07045451 1.17299981 5.79950343 1 9 C0.67 9.33 0.34 9.66 0 10 C-0.36760731 12.32817964 -0.70241581 14.6618385 -1 17 C-1.66 17 -2.32 17 -3 17 C-2.22095672 5.47835991 -2.22095672 5.47835991 0 0 Z " fill="#161616" transform="translate(356,178)"/>
<path d="M0 0 C1.77049689 -0.05410687 3.54146849 -0.09284119 5.3125 -0.125 C6.29863281 -0.14820313 7.28476562 -0.17140625 8.30078125 -0.1953125 C11 0 11 0 14 2 C9.05 2.33 4.1 2.66 -1 3 C-0.67 2.01 -0.34 1.02 0 0 Z " fill="#191919" transform="translate(523,965)"/>
<path d="M0 0 C0.99 0.33 1.98 0.66 3 1 C3.80078125 2.99609375 3.80078125 2.99609375 4.3125 5.4375 C4.49425781 6.24058594 4.67601563 7.04367187 4.86328125 7.87109375 C4.90839844 8.57363281 4.95351562 9.27617188 5 10 C4.34 10.66 3.68 11.32 3 12 C2.49440092 10.56445975 1.9957251 9.1264798 1.5 7.6875 C1.2215625 6.88699219 0.943125 6.08648438 0.65625 5.26171875 C0 3 0 3 0 0 Z " fill="#131313" transform="translate(110,554)"/>
<path d="M0 0 C0.99 0.33 1.98 0.66 3 1 C4.1577506 4.47325181 4.06866652 7.36067448 4 11 C3.01 10.67 2.02 10.34 1 10 C0.67 6.7 0.34 3.4 0 0 Z " fill="#141414" transform="translate(915,464)"/>
<path d="M0 0 C0.66 0 1.32 0 2 0 C2.83819158 1.62249941 3.6704116 3.24808497 4.5 4.875 C4.9640625 5.77992188 5.428125 6.68484375 5.90625 7.6171875 C7 10 7 10 7 12 C6.34 12 5.68 12 5 12 C4.16180842 10.37750059 3.3295884 8.75191503 2.5 7.125 C2.0359375 6.22007812 1.571875 5.31515625 1.09375 4.3828125 C0 2 0 2 0 0 Z " fill="#EDEDED" transform="translate(375,838)"/>
<path d="M0 0 C0.66 0.33 1.32 0.66 2 1 C1.4375 2.9375 1.4375 2.9375 0 5 C-2.32156597 5.40729228 -4.6568787 5.74438677 -7 6 C-7.33 6.66 -7.66 7.32 -8 8 C-8 7.01 -8 6.02 -8 5 C-6.3203125 3.578125 -6.3203125 3.578125 -4.125 2.25 C-3.40570312 1.80140625 -2.68640625 1.3528125 -1.9453125 0.890625 C-1.30335938 0.59671875 -0.66140625 0.3028125 0 0 Z " fill="#171717" transform="translate(659,566)"/>
<path d="M0 0 C0.33 0.99 0.66 1.98 1 3 C1.66 3.33 2.32 3.66 3 4 C2.34 4 1.68 4 1 4 C1 5.65 1 7.3 1 9 C0.34 9 -0.32 9 -1 9 C-1.33 9.99 -1.66 10.98 -2 12 C-3.30532548 9.38934904 -2.78282536 8.2445219 -2.125 5.4375 C-1.94195312 4.63183594 -1.75890625 3.82617188 -1.5703125 2.99609375 C-1 1 -1 1 0 0 Z " fill="#151615" transform="translate(66,454)"/>
<path d="M0 0 C0.66 0 1.32 0 2 0 C2.66 3.63 3.32 7.26 4 11 C3.01 11.33 2.02 11.66 1 12 C1.020625 11.195625 1.04125 10.39125 1.0625 9.5625 C1.29633621 7.06645115 1.29633621 7.06645115 0 6 C-0.04080783 4.00041636 -0.04254356 1.99954746 0 0 Z " fill="#171818" transform="translate(663,170)"/>
<path d="M0 0 C0 0.99 0 1.98 0 3 C-0.7425 2.979375 -1.485 2.95875 -2.25 2.9375 C-4.70462279 2.99328688 -6.66109261 3.3069904 -9 4 C-9 3.01 -9 2.02 -9 1 C-5.846632 0.29925156 -3.27275026 0 0 0 Z " fill="#191919" transform="translate(205,329)"/>
<path d="M0 0 C2.97 0 5.94 0 9 0 C5.72698081 2.96909598 3.61934238 3.34354794 -0.75 3.1875 C-1.73484375 3.16042969 -2.7196875 3.13335937 -3.734375 3.10546875 C-4.48203125 3.07066406 -5.2296875 3.03585937 -6 3 C-6 2.67 -6 2.34 -6 2 C-4.02 1.67 -2.04 1.34 0 1 C0 0.67 0 0.34 0 0 Z " fill="#F3F2F1" transform="translate(410,325)"/>
<path d="M0 0 C0.66 1.32 1.32 2.64 2 4 C-0.77280706 7.08089673 -3.06326356 8.68775452 -7 10 C-7 9.34 -7 8.68 -7 8 C-5.02 7.01 -3.04 6.02 -1 5 C-1 4.01 -1 3.02 -1 2 C-0.67 1.34 -0.34 0.68 0 0 Z " fill="#080707" transform="translate(585,944)"/>
<path d="M0 0 C4.12751449 0.60698743 7.3321148 2.03810791 11 4 C10.34 4.66 9.68 5.32 9 6 C8.071875 5.525625 7.14375 5.05125 6.1875 4.5625 C3.08803763 2.95511125 3.08803763 2.95511125 0 2 C0 1.34 0 0.68 0 0 Z " fill="#1A191A" transform="translate(442,913)"/>
<path d="M0 0 C0.33 0 0.66 0 1 0 C1.98248524 4.0527516 2.08159574 7.83861737 2 12 C1.01 11.67 0.02 11.34 -1 11 C-0.67 7.37 -0.34 3.74 0 0 Z " fill="#1C1B1C" transform="translate(355,826)"/>
<path d="M0 0 C3.3 0.66 6.6 1.32 10 2 C9.67 2.66 9.34 3.32 9 4 C5.7 3.34 2.4 2.68 -1 2 C-0.67 1.34 -0.34 0.68 0 0 Z " fill="#F1F1F1" transform="translate(843,332)"/>
<path d="M0 0 C0.99 0.33 1.98 0.66 3 1 C3.125 4.375 3.125 4.375 3 8 C2.34 8.66 1.68 9.32 1 10 C0.67 6.7 0.34 3.4 0 0 Z " fill="#151515" transform="translate(658,218)"/>
<path d="M0 0 C3.64553172 1.2808625 5.16671013 2.16671013 8 5 C3.545 4.01 3.545 4.01 -1 3 C-0.67 2.01 -0.34 1.02 0 0 Z " fill="#121212" transform="translate(448,678)"/>
<path d="M0 0 C0.33 0 0.66 0 1 0 C1 3.96 1 7.92 1 12 C0.01 11.67 -0.98 11.34 -2 11 C-1.34 7.37 -0.68 3.74 0 0 Z " fill="#E7E7E7" transform="translate(379,562)"/>
<path d="M0 0 C1.32 0.33 2.64 0.66 4 1 C3.67 1.66 3.34 2.32 3 3 C0.67843403 3.40729228 -1.6568787 3.74438677 -4 4 C-4.33 3.01 -4.66 2.02 -5 1 C-2.525 1.495 -2.525 1.495 0 2 C0 1.34 0 0.68 0 0 Z " fill="#141514" transform="translate(230,337)"/>
<path d="M0 0 C2.31 0.66 4.62 1.32 7 2 C7 2.66 7 3.32 7 4 C1.25 3.25 1.25 3.25 -1 1 C-0.67 0.67 -0.34 0.34 0 0 Z " fill="#121213" transform="translate(579,71)"/>
<path d="M0 0 C-0.33 0.66 -0.66 1.32 -1 2 C-4.0625 2.625 -4.0625 2.625 -7 3 C-7 2.01 -7 1.02 -7 0 C-3.86650268 -1.04449911 -3.01031744 -0.93423645 0 0 Z " fill="#131313" transform="translate(835,676)"/>
<path d="M0 0 C0.66 0.33 1.32 0.66 2 1 C2 1.66 2 2.32 2 3 C-0.31 3.66 -2.62 4.32 -5 5 C-5 4.01 -5 3.02 -5 2 C-2.625 0.9375 -2.625 0.9375 0 0 Z " fill="#141414" transform="translate(849,670)"/>
<path d="M0 0 C2.39763185 2.39763185 2.34280586 3.33273498 2.625 6.625 C2.69976562 7.44226563 2.77453125 8.25953125 2.8515625 9.1015625 C2.90054687 9.72804688 2.94953125 10.35453125 3 11 C2.67 10.01 2.34 9.02 2 8 C1.34 8 0.68 8 0 8 C0 5.36 0 2.72 0 0 Z " fill="#141414" transform="translate(378,354)"/>
<path d="M0 0 C2.5654594 2.5654594 2.54046087 4.47686668 3 8 C2.01 8 1.02 8 0 8 C-0.79953138 4.71303767 -1.09658936 3.28976808 0 0 Z " fill="#121212" transform="translate(652,190)"/>
<path d="M0 0 C2.31 0.66 4.62 1.32 7 2 C6.01 3.485 6.01 3.485 5 5 C3.02 4.01 1.04 3.02 -1 2 C-0.67 1.34 -0.34 0.68 0 0 Z " fill="#1F1F1F" transform="translate(574,106)"/>
</svg>
