<?xml version="1.0" encoding="UTF-8"?>
<svg version="1.1" xmlns="http://www.w3.org/2000/svg" width="452" height="92">
<path d="M0 0 C2.73754654 2.29189943 4.29356857 3.97016133 5.6875 7.25 C5.375 9.5625 5.375 9.5625 4.6875 11.25 C4.1925 10.321875 3.6975 9.39375 3.1875 8.4375 C0.94628986 5.10725114 -1.37020833 3.83780243 -5.1640625 2.66015625 C-9.45343889 1.8412753 -13.24951001 1.99730405 -17.04296875 4.30078125 C-19.92196576 6.59687022 -22.27435954 9.19278931 -24.3125 12.25 C-24.06309255 7.13714732 -22.36432625 4.36740015 -18.98046875 0.734375 C-13.3007341 -4.32018979 -6.24334123 -3.29836895 0 0 Z " fill="#000000" transform="translate(53.3125,4.75)"/>
<path d="M0 0 C2.5625 0.1875 2.5625 0.1875 4.5625 2.1875 C4.6875 4.8125 4.6875 4.8125 4.5625 7.1875 C9.31145081 7.2734971 13.75630206 7.34353831 18.4375 6.4375 C21.5625 6.1875 21.5625 6.1875 23.71484375 7.765625 C26.07541663 10.85982201 26.12167651 12.82894525 26.25 16.6875 C26.39776382 20.36892994 26.66379675 23.62628338 27.5625 27.1875 C26.5625 28.1875 26.5625 28.1875 24.54052734 28.28515625 C23.6686377 28.27355469 22.79674805 28.26195313 21.8984375 28.25 C20.94066406 28.24226563 19.98289062 28.23453125 18.99609375 28.2265625 C16.98046491 28.20082011 14.96483977 28.17478549 12.94921875 28.1484375 C7.71983848 28.1065466 2.68848601 28.07651812 -2.4375 29.1875 C-2.746875 29.80625 -3.05625 30.425 -3.375 31.0625 C-4.86127305 34.03504611 -7.01500387 34.74993263 -10.0703125 35.78515625 C-14.32907766 36.50900577 -18.3962315 35.60720213 -22.4375 34.1875 C-23.0975 33.5275 -23.7575 32.8675 -24.4375 32.1875 C-24.4375 30.8675 -24.4375 29.5475 -24.4375 28.1875 C-25.03288574 28.1875 -25.62827148 28.1875 -26.24169922 28.1875 C-39.64029948 28.1875 -53.03889974 28.1875 -66.4375 28.1875 C-67 26.25 -67 26.25 -67.4375 24.1875 C-67.1075 23.8575 -66.7775 23.5275 -66.4375 23.1875 C-66.33701773 20.40650528 -66.29879046 17.65575072 -66.3125 14.875 C-66.30863281 14.10220703 -66.30476563 13.32941406 -66.30078125 12.53320312 C-66.30207031 11.78361328 -66.30335938 11.03402344 -66.3046875 10.26171875 C-66.30581543 9.57682373 -66.30694336 8.89192871 -66.30810547 8.1862793 C-66.37777078 6.13380475 -66.37777078 6.13380475 -67.00830078 3.99536133 C-67.14993652 3.39876709 -67.29157227 2.80217285 -67.4375 2.1875 C-66.4375 1.1875 -66.4375 1.1875 -64.57983398 1.07397461 C-63.39369507 1.08182983 -63.39369507 1.08182983 -62.18359375 1.08984375 C-60.90258789 1.09467773 -60.90258789 1.09467773 -59.59570312 1.09960938 C-58.69787109 1.10798828 -57.80003906 1.11636719 -56.875 1.125 C-55.97330078 1.12951172 -55.07160156 1.13402344 -54.14257812 1.13867188 C-51.90748686 1.15049775 -49.67252563 1.1669778 -47.4375 1.1875 C-46.4475 3.1675 -45.4575 5.1475 -44.4375 7.1875 C-40.28203687 7.26040286 -36.82511604 7.27290692 -32.75 6.375 C-29.4375 6.1875 -29.4375 6.1875 -26.5 8.625 C-25.4790625 9.8934375 -25.4790625 9.8934375 -24.4375 11.1875 C-23.77363281 10.54296875 -23.10976563 9.8984375 -22.42578125 9.234375 C-18.81164618 6.75881059 -15.86480432 6.52675904 -11.625 6.4375 C-10.58569336 6.39302734 -10.58569336 6.39302734 -9.52539062 6.34765625 C-7.83003787 6.27750372 -6.13376688 6.23017338 -4.4375 6.1875 C-4.293125 5.383125 -4.14875 4.57875 -4 3.75 C-3.23139313 0.2485687 -3.23139313 0.2485687 0 0 Z M-0.4375 1.1875 C-1.0975 1.8475 -1.7575 2.5075 -2.4375 3.1875 C-2.1189823 5.29570797 -2.1189823 5.29570797 -1.4375 7.1875 C-0.1175 6.8575 1.2025 6.5275 2.5625 6.1875 C2.5625 4.8675 2.5625 3.5475 2.5625 2.1875 C1.5725 1.8575 0.5825 1.5275 -0.4375 1.1875 Z M-65.4375 3.1875 C-65.1075 3.8475 -64.7775 4.5075 -64.4375 5.1875 C-64.34245475 6.6121028 -64.3067714 8.04098167 -64.3046875 9.46875 C-64.30339844 10.31050781 -64.30210937 11.15226562 -64.30078125 12.01953125 C-64.30464844 12.89996094 -64.30851562 13.78039063 -64.3125 14.6875 C-64.30863281 15.56792969 -64.30476563 16.44835938 -64.30078125 17.35546875 C-64.30207031 18.19722656 -64.30335938 19.03898437 -64.3046875 19.90625 C-64.30581543 20.67904297 -64.30694336 21.45183594 -64.30810547 22.24804688 C-64.4375 24.1875 -64.4375 24.1875 -65.4375 26.1875 C-59.4975 26.1875 -53.5575 26.1875 -47.4375 26.1875 C-46.7775 23.5475 -46.1175 20.9075 -45.4375 18.1875 C-46.22125 18.826875 -47.005 19.46625 -47.8125 20.125 C-51.66239621 23.14991845 -53.58601318 23.2929671 -58.4375 23.1875 C-58.4375 19.5575 -58.4375 15.9275 -58.4375 12.1875 C-53.4375 13.1875 -53.4375 13.1875 -51.4375 15.1875 C-51.7675 12.8775 -52.0975 10.5675 -52.4375 8.1875 C-54.4175 8.5175 -56.3975 8.8475 -58.4375 9.1875 C-58.4375 8.1975 -58.4375 7.2075 -58.4375 6.1875 C-53.88012737 6.62570891 -50.86096555 7.03791169 -47.4375 10.1875 C-47.7675 7.8775 -48.0975 5.5675 -48.4375 3.1875 C-54.0475 3.1875 -59.6575 3.1875 -65.4375 3.1875 Z M-38.4375 11.1875 C-38.4375 10.5275 -38.4375 9.8675 -38.4375 9.1875 C-40.4175 9.1875 -42.3975 9.1875 -44.4375 9.1875 C-43.4475 9.6825 -43.4475 9.6825 -42.4375 10.1875 C-42.4375 15.1375 -42.4375 20.0875 -42.4375 25.1875 C-43.0975 25.5175 -43.7575 25.8475 -44.4375 26.1875 C-41.7975 26.1875 -39.1575 26.1875 -36.4375 26.1875 C-36.7675 25.5275 -37.0975 24.8675 -37.4375 24.1875 C-37.66938406 16.88315217 -37.66938406 16.88315217 -36.4375 13.1875 C-34.4375 12.4375 -34.4375 12.4375 -32.4375 12.1875 C-31.4375 13.1875 -31.4375 13.1875 -31.3046875 15.62109375 C-31.30726563 16.61238281 -31.30984375 17.60367188 -31.3125 18.625 C-31.30992187 19.61371094 -31.30734375 20.60242188 -31.3046875 21.62109375 C-31.4375 24.1875 -31.4375 24.1875 -32.4375 26.1875 C-29.7975 26.1875 -27.1575 26.1875 -24.4375 26.1875 C-25.0975 25.8575 -25.7575 25.5275 -26.4375 25.1875 C-26.69758985 22.6841352 -26.85870408 20.25988169 -26.9375 17.75 C-26.82742942 12.4840085 -26.82742942 12.4840085 -29.4375 8.1875 C-33.71459699 8.1875 -34.99680376 8.89370251 -38.4375 11.1875 Z M12.5625 10.1875 C12.2325 9.8575 11.9025 9.5275 11.5625 9.1875 C9.89632885 9.14686168 8.22861905 9.144779 6.5625 9.1875 C6.8925 9.8475 7.2225 10.5075 7.5625 11.1875 C7.79279956 13.55873246 7.97369942 15.93491943 8.125 18.3125 C8.20878906 19.59382813 8.29257812 20.87515625 8.37890625 22.1953125 C8.46978516 23.67644531 8.46978516 23.67644531 8.5625 25.1875 C7.9025 25.5175 7.2425 25.8475 6.5625 26.1875 C9.2025 26.1875 11.8425 26.1875 14.5625 26.1875 C13.9025 25.8575 13.2425 25.5275 12.5625 25.1875 C12.8925 21.5575 13.2225 17.9275 13.5625 14.1875 C15.2125 13.5275 16.8625 12.8675 18.5625 12.1875 C18.8925 16.4775 19.2225 20.7675 19.5625 25.1875 C18.9025 25.5175 18.2425 25.8475 17.5625 26.1875 C20.2025 26.1875 22.8425 26.1875 25.5625 26.1875 C24.9025 25.8575 24.2425 25.5275 23.5625 25.1875 C23.59730469 24.12789062 23.63210938 23.06828125 23.66796875 21.9765625 C23.69610399 20.58855748 23.72340443 19.20053537 23.75 17.8125 C23.77513672 17.11382812 23.80027344 16.41515625 23.82617188 15.6953125 C23.89228561 13.42002323 23.89228561 13.42002323 23.5625 10.1875 C19.19358281 7.27488854 17.12347763 8.21518535 12.5625 10.1875 Z M-21.33203125 10.48828125 C-23.18114169 13.33055347 -23.32217762 15.84315106 -23.4375 19.1875 C-22.22338734 22.06302999 -21.17639186 23.6333311 -18.6875 25.5 C-15.56893415 26.45289512 -12.67515175 26.31202507 -9.4375 26.1875 C-9.7675 27.5075 -10.0975 28.8275 -10.4375 30.1875 C-16.96057692 30.55673077 -16.96057692 30.55673077 -19.375 28.6875 C-19.725625 28.1925 -20.07625 27.6975 -20.4375 27.1875 C-21.0975 28.5075 -21.7575 29.8275 -22.4375 31.1875 C-17.99171147 34.15135902 -13.65168646 33.82660806 -8.4375 33.1875 C-5.58941594 31.68208937 -5.58941594 31.68208937 -4.4375 29.1875 C-4.62765254 26.96905374 -4.85272155 25.77227845 -6.4375 24.1875 C-6.5366757 22.04355481 -6.5672015 19.89623268 -6.5625 17.75 C-6.56507813 16.57566406 -6.56765625 15.40132812 -6.5703125 14.19140625 C-6.4375 11.1875 -6.4375 11.1875 -5.4375 9.1875 C-7.70774968 9.10652676 -9.97882075 9.04832296 -12.25 9 C-13.51457031 8.96519531 -14.77914062 8.93039063 -16.08203125 8.89453125 C-19.35627651 8.90306473 -19.35627651 8.90306473 -21.33203125 10.48828125 Z M-3.4375 9.1875 C-3.1075 9.8475 -2.7775 10.5075 -2.4375 11.1875 C-2.34064912 13.35240195 -2.30770562 15.52043803 -2.3125 17.6875 C-2.30992187 18.8528125 -2.30734375 20.018125 -2.3046875 21.21875 C-2.4375 24.1875 -2.4375 24.1875 -3.4375 26.1875 C-0.7975 26.1875 1.8425 26.1875 4.5625 26.1875 C3.9025 25.8575 3.2425 25.5275 2.5625 25.1875 C2.5625 19.9075 2.5625 14.6275 2.5625 9.1875 C0.5825 9.1875 -1.3975 9.1875 -3.4375 9.1875 Z M-5.4375 11.1875 C-5.4375 15.1475 -5.4375 19.1075 -5.4375 23.1875 C-4.7775 23.1875 -4.1175 23.1875 -3.4375 23.1875 C-3.4375 19.5575 -3.4375 15.9275 -3.4375 12.1875 C-4.0975 11.8575 -4.7575 11.5275 -5.4375 11.1875 Z M4.5625 11.1875 C4.5625 15.4775 4.5625 19.7675 4.5625 24.1875 C5.2225 23.8575 5.8825 23.5275 6.5625 23.1875 C6.5625 19.5575 6.5625 15.9275 6.5625 12.1875 C5.9025 11.8575 5.2425 11.5275 4.5625 11.1875 Z M-49.4375 12.1875 C-49.4375 13.8375 -49.4375 15.4875 -49.4375 17.1875 C-51.375 16.8125 -51.375 16.8125 -53.4375 16.1875 C-53.7675 15.5275 -54.0975 14.8675 -54.4375 14.1875 C-55.4275 14.1875 -56.4175 14.1875 -57.4375 14.1875 C-57.4375 16.8275 -57.4375 19.4675 -57.4375 22.1875 C-55.14913778 22.60736946 -55.14913778 22.60736946 -52.4375 22.1875 C-49.83335286 19.83337234 -49.83335286 19.83337234 -47.4375 17.1875 C-45.125 15.875 -45.125 15.875 -43.4375 15.1875 C-43.7675 13.8675 -44.0975 12.5475 -44.4375 11.1875 C-46.64831851 11.08209074 -46.64831851 11.08209074 -49.4375 12.1875 Z M16.5625 13.1875 C14.37918311 14.94886355 14.37918311 14.94886355 14.3671875 17.1328125 C14.40199219 18.21175781 14.40199219 18.21175781 14.4375 19.3125 C14.47875 20.59125 14.52 21.87 14.5625 23.1875 C15.5525 23.5175 16.5425 23.8475 17.5625 24.1875 C17.5625 20.5575 17.5625 16.9275 17.5625 13.1875 C17.2325 13.1875 16.9025 13.1875 16.5625 13.1875 Z M-35.4375 14.1875 C-36.9158226 17.14414519 -36.49782783 19.92979737 -36.4375 23.1875 C-35.1175 23.1875 -33.7975 23.1875 -32.4375 23.1875 C-32.4375 20.2175 -32.4375 17.2475 -32.4375 14.1875 C-33.4275 14.1875 -34.4175 14.1875 -35.4375 14.1875 Z M-24.4375 22.1875 C-23.4375 24.1875 -23.4375 24.1875 -23.4375 24.1875 Z M-16.4375 28.1875 C-16.4375 28.5175 -16.4375 28.8475 -16.4375 29.1875 C-14.7875 29.1875 -13.1375 29.1875 -11.4375 29.1875 C-11.4375 28.8575 -11.4375 28.5275 -11.4375 28.1875 C-13.0875 28.1875 -14.7375 28.1875 -16.4375 28.1875 Z " fill="#000000" transform="translate(348.4375,15.8125)"/>
<path d="M0 0 C3.67387551 0.16328336 5.53776001 0.61074527 8.375 3 C10.5720626 7.05611557 10.97797435 10.48108405 10 15 C7.49146736 17.93856681 6.08421152 18.87679414 2.25 19.3125 C0 19 0 19 -1 18 C-1.09986975 15.15664952 -1.13877881 12.34302837 -1.125 9.5 C-1.12886719 8.70207031 -1.13273437 7.90414063 -1.13671875 7.08203125 C-1.12660767 1.12660767 -1.12660767 1.12660767 0 0 Z M1 2 C1 6.95 1 11.9 1 17 C2.98 16.67 4.96 16.34 7 16 C8.56935594 12.86128812 8.35201103 10.46144178 8 7 C5.77023837 4.01880459 5.77023837 4.01880459 3 2 C2.34 2 1.68 2 1 2 Z " fill="#000000" transform="translate(120,21)"/>
<path d="M0 0 C2.5625 0.1875 2.5625 0.1875 4.5625 2.1875 C4.77368164 4.27880859 4.77368164 4.27880859 4.72265625 6.8359375 C4.7062207 8.22039063 4.7062207 8.22039063 4.68945312 9.6328125 C4.66818359 10.59960938 4.64691406 11.56640625 4.625 12.5625 C4.59045945 14.46606804 4.56034468 16.36972274 4.53515625 18.2734375 C4.51718994 19.1195459 4.49922363 19.9656543 4.48071289 20.83740234 C4.48037544 23.1929123 4.48037544 23.1929123 5.12670898 25.43212891 C5.27052002 26.01140137 5.41433105 26.59067383 5.5625 27.1875 C2.84429581 29.90570419 -5.15436773 28.47206111 -8.8125 28.5 C-10.070625 28.52900391 -11.32875 28.55800781 -12.625 28.58789062 C-13.82898438 28.59626953 -15.03296875 28.60464844 -16.2734375 28.61328125 C-17.38251465 28.62786377 -18.4915918 28.64244629 -19.63427734 28.6574707 C-22.4375 28.1875 -22.4375 28.1875 -24.29077148 26.34936523 C-26.58996102 22.01482759 -26.17616449 16.9960733 -26.4375 12.1875 C-26.4375 19.7775 -26.4375 27.3675 -26.4375 35.1875 C-30.0675 35.1875 -33.6975 35.1875 -37.4375 35.1875 C-37.4375 33.8675 -37.4375 32.5475 -37.4375 31.1875 C-36.7775 31.1875 -36.1175 31.1875 -35.4375 31.1875 C-35.4375 30.1975 -35.4375 29.2075 -35.4375 28.1875 C-36.71625 28.06375 -37.995 27.94 -39.3125 27.8125 C-43.1875 27.4375 -43.1875 27.4375 -45.4375 25.1875 C-46.4275 26.6725 -46.4275 26.6725 -47.4375 28.1875 C-50.33026889 28.43672317 -52.98957371 28.51374578 -55.875 28.4375 C-56.65166016 28.43234375 -57.42832031 28.4271875 -58.22851562 28.421875 C-61.53205327 28.37634821 -64.2860937 28.23796877 -67.4375 27.1875 C-67.9325 27.6825 -67.9325 27.6825 -68.4375 28.1875 C-69.99922745 28.27435603 -71.56479344 28.29452219 -73.12890625 28.28515625 C-74.07314453 28.28193359 -75.01738281 28.27871094 -75.99023438 28.27539062 C-76.98345703 28.26701172 -77.97667969 28.25863281 -79 28.25 C-79.99708984 28.24548828 -80.99417969 28.24097656 -82.02148438 28.23632812 C-84.49354849 28.22450007 -86.96549518 28.20801849 -89.4375 28.1875 C-90 26.25 -90 26.25 -90.4375 24.1875 C-89.9425 23.6925 -89.9425 23.6925 -89.4375 23.1875 C-89.36544489 21.50141034 -89.35363932 19.81249341 -89.375 18.125 C-89.38402344 17.20589844 -89.39304688 16.28679688 -89.40234375 15.33984375 C-89.41394531 14.62957031 -89.42554688 13.91929688 -89.4375 13.1875 C-89.62860352 13.71182617 -89.81970703 14.23615234 -90.01660156 14.77636719 C-90.89552905 17.16776917 -91.79130315 19.552519 -92.6875 21.9375 C-92.98785156 22.7625 -93.28820312 23.5875 -93.59765625 24.4375 C-96.59324545 32.34075661 -96.59324545 32.34075661 -100.4375 35.1875 C-103.5 35.625 -103.5 35.625 -106.4375 35.1875 C-108.3125 33.6875 -108.3125 33.6875 -109.4375 32.1875 C-108.4475 29.8775 -107.4575 27.5675 -106.4375 25.1875 C-105.1175 25.5175 -103.7975 25.8475 -102.4375 26.1875 C-103.4275 23.2175 -104.4175 20.2475 -105.4375 17.1875 C-106.13875 18.445625 -106.84 19.70375 -107.5625 21 C-109.81021409 25.03266351 -112.1174233 26.55728238 -116.4375 28.1875 C-119.1563776 28.39347558 -121.61391622 28.47698136 -124.3125 28.375 C-125.00085938 28.36146484 -125.68921875 28.34792969 -126.3984375 28.33398438 C-128.07847001 28.2989837 -129.7580935 28.24518954 -131.4375 28.1875 C-132 26.25 -132 26.25 -132.4375 24.1875 C-132.1075 23.8575 -131.7775 23.5275 -131.4375 23.1875 C-131.33701773 20.40650528 -131.29879046 17.65575072 -131.3125 14.875 C-131.30863281 14.10220703 -131.30476563 13.32941406 -131.30078125 12.53320312 C-131.30207031 11.78361328 -131.30335938 11.03402344 -131.3046875 10.26171875 C-131.30581543 9.57682373 -131.30694336 8.89192871 -131.30810547 8.1862793 C-131.37777078 6.13380475 -131.37777078 6.13380475 -132.00830078 3.99536133 C-132.14993652 3.39876709 -132.29157227 2.80217285 -132.4375 2.1875 C-130.60460552 0.35460552 -127.84146175 0.92880341 -125.375 0.875 C-118.40948879 0.91327204 -113.5003731 2.1246269 -108.4375 7.1875 C-105.99737051 7.43037489 -105.99737051 7.43037489 -103.3125 7.3125 C-102.40242188 7.29445313 -101.49234375 7.27640625 -100.5546875 7.2578125 C-99.85601562 7.23460937 -99.15734375 7.21140625 -98.4375 7.1875 C-97.9425 10.1575 -97.9425 10.1575 -97.4375 13.1875 C-97.1075 11.2075 -96.7775 9.2275 -96.4375 7.1875 C-94.82681641 7.20490234 -94.82681641 7.20490234 -93.18359375 7.22265625 C-91.74739759 7.23204315 -90.31119952 7.24114238 -88.875 7.25 C-88.17052734 7.25837891 -87.46605469 7.26675781 -86.74023438 7.27539062 C-83.22330893 7.29159765 -80.14607582 7.13415762 -76.66015625 6.49609375 C-73.4375 6.1875 -73.4375 6.1875 -71.046875 7.30078125 C-68.98813858 9.71429992 -68.8507121 11.23316701 -68.6875 14.375 C-68.63078125 15.27605469 -68.5740625 16.17710938 -68.515625 17.10546875 C-68.48984375 17.79253906 -68.4640625 18.47960937 -68.4375 19.1875 C-67.27609208 16.23032251 -67.27609208 16.23032251 -67.4375 13.125 C-67.4375 10.1875 -67.4375 10.1875 -66.4375 8.1875 C-62.03509319 6.63370936 -58.10316903 5.66909233 -53.4375 6.1875 C-50.3015843 7.96734405 -49.59647264 8.71058207 -48.4375 12.1875 C-47.70144531 11.37023438 -46.96539062 10.55296875 -46.20703125 9.7109375 C-41.4929188 5.78505014 -35.95322484 6.61259637 -30.125 6.8125 C-28.46114258 6.83376953 -28.46114258 6.83376953 -26.76367188 6.85546875 C-18.61992163 7.00507837 -18.61992163 7.00507837 -17.4375 8.1875 C-17.36491054 10.37389453 -17.35376217 12.56250389 -17.375 14.75 C-17.38402344 15.94753906 -17.39304687 17.14507812 -17.40234375 18.37890625 C-17.41394531 19.30574219 -17.42554688 20.23257813 -17.4375 21.1875 C-16.4475 20.6925 -16.4475 20.6925 -15.4375 20.1875 C-15.4375 19.57261719 -15.4375 18.95773438 -15.4375 18.32421875 C-15.4375 8.1875 -15.4375 8.1875 -14.4375 7.1875 C-12.625 7.0546875 -12.625 7.0546875 -10.4375 7.0625 C-9.715625 7.05992188 -8.99375 7.05734375 -8.25 7.0546875 C-6.4375 7.1875 -6.4375 7.1875 -5.4375 8.1875 C-4.9734375 6.4859375 -4.9734375 6.4859375 -4.5 4.75 C-3.15573204 0.24274862 -3.15573204 0.24274862 0 0 Z M-0.4375 1.1875 C-1.4275 1.6825 -1.4275 1.6825 -2.4375 2.1875 C-2.1075 3.8375 -1.7775 5.4875 -1.4375 7.1875 C-0.1175 6.8575 1.2025 6.5275 2.5625 6.1875 C2.21463292 4.21213255 2.21463292 4.21213255 1.5625 2.1875 C0.9025 1.8575 0.2425 1.5275 -0.4375 1.1875 Z M-130.4375 3.1875 C-130.1075 4.1775 -129.7775 5.1675 -129.4375 6.1875 C-129.34615927 7.57191528 -129.30684404 8.96023269 -129.3046875 10.34765625 C-129.30339844 11.14107422 -129.30210937 11.93449219 -129.30078125 12.75195312 C-129.30464844 13.57630859 -129.30851562 14.40066406 -129.3125 15.25 C-129.30863281 16.07822266 -129.30476563 16.90644531 -129.30078125 17.75976562 C-129.30207031 18.55189453 -129.30335938 19.34402344 -129.3046875 20.16015625 C-129.30581543 20.88468994 -129.30694336 21.60922363 -129.30810547 22.35571289 C-129.4375 24.1875 -129.4375 24.1875 -130.4375 26.1875 C-121.22001847 27.08981634 -121.22001847 27.08981634 -112.6875 24.4375 C-109.83613687 21.71135995 -109.83613687 21.71135995 -108.4375 18.1875 C-108.51512862 13.29689684 -108.65886334 11.18242462 -111.6875 7.3125 C-116.13968449 3.87217562 -119.65382614 2.92765244 -125.25 3.0625 C-126.22582031 3.08054687 -127.20164062 3.09859375 -128.20703125 3.1171875 C-128.94308594 3.14039063 -129.67914063 3.16359375 -130.4375 3.1875 Z M-82.4375 11.1875 C-82.4375 10.5275 -82.4375 9.8675 -82.4375 9.1875 C-84.4175 9.1875 -86.3975 9.1875 -88.4375 9.1875 C-88.1075 9.8475 -87.7775 10.5075 -87.4375 11.1875 C-87.20720044 13.55873246 -87.02630058 15.93491943 -86.875 18.3125 C-86.79121094 19.59382813 -86.70742187 20.87515625 -86.62109375 22.1953125 C-86.53021484 23.67644531 -86.53021484 23.67644531 -86.4375 25.1875 C-87.0975 25.5175 -87.7575 25.8475 -88.4375 26.1875 C-85.7975 26.1875 -83.1575 26.1875 -80.4375 26.1875 C-80.7675 25.5275 -81.0975 24.8675 -81.4375 24.1875 C-81.640625 22.12890625 -81.640625 22.12890625 -81.6875 19.75 C-81.72617188 18.57630859 -81.72617188 18.57630859 -81.765625 17.37890625 C-81.36143381 14.67948652 -80.59076907 13.81290456 -78.4375 12.1875 C-77.7775 12.1875 -77.1175 12.1875 -76.4375 12.1875 C-75.52452692 17.15813121 -75.52452692 21.21686879 -76.4375 26.1875 C-74.1275 26.1875 -71.8175 26.1875 -69.4375 26.1875 C-69.7675 25.5275 -70.0975 24.8675 -70.4375 24.1875 C-70.67592316 20.58466109 -70.82046535 16.98291639 -70.9609375 13.375 C-71.11820313 12.323125 -71.27546875 11.27125 -71.4375 10.1875 C-76.14637637 7.04824909 -77.99845988 8.30812263 -82.4375 11.1875 Z M-64.4375 10.1875 C-64.7675 11.8375 -65.0975 13.4875 -65.4375 15.1875 C-64.90125 14.6925 -64.365 14.1975 -63.8125 13.6875 C-60.84391555 11.81260456 -58.88437573 11.95248575 -55.4375 12.1875 C-55.4375 12.8475 -55.4375 13.5075 -55.4375 14.1875 C-55.98019531 14.36925781 -56.52289063 14.55101562 -57.08203125 14.73828125 C-57.79746094 14.98964844 -58.51289063 15.24101562 -59.25 15.5 C-59.95769531 15.74363281 -60.66539062 15.98726562 -61.39453125 16.23828125 C-63.62746694 17.2757638 -64.91987233 18.25288837 -66.4375 20.1875 C-66.19544651 23.50568985 -66.19544651 23.50568985 -64.4375 26.1875 C-60.77405389 26.32318319 -57.93134279 26.35211426 -54.4375 25.1875 C-54.1075 25.5175 -53.7775 25.8475 -53.4375 26.1875 C-51.77132885 26.22813832 -50.10361905 26.230221 -48.4375 26.1875 C-48.7675 25.5275 -49.0975 24.8675 -49.4375 24.1875 C-49.6354359 21.17007722 -49.75562003 18.15475155 -49.86328125 15.1328125 C-50.55968248 11.56079531 -51.52295703 10.32311202 -54.4375 8.1875 C-58.34182869 8.1875 -60.81776598 8.87123308 -64.4375 10.1875 Z M-106.4375 9.1875 C-105.99277344 10.29609375 -105.54804688 11.4046875 -105.08984375 12.546875 C-104.51764994 14.01019031 -103.94606718 15.47374465 -103.375 16.9375 C-103.08044922 17.66710938 -102.78589844 18.39671875 -102.48242188 19.1484375 C-102.20849609 19.85742188 -101.93457031 20.56640625 -101.65234375 21.296875 C-101.39573975 21.94624023 -101.13913574 22.59560547 -100.87475586 23.26464844 C-100.35419716 25.55382786 -100.71385696 26.98006664 -101.4375 29.1875 C-102.0975 29.1875 -102.7575 29.1875 -103.4375 29.1875 C-104.0975 28.5275 -104.7575 27.8675 -105.4375 27.1875 C-106.4275 29.6625 -106.4275 29.6625 -107.4375 32.1875 C-106.33100443 33.50284788 -106.33100443 33.50284788 -103.5625 33.5 C-100.46790373 33.52091731 -100.46790373 33.52091731 -98.96875 31.73828125 C-96.74498537 28.03389782 -95.31865575 24.10231605 -93.8125 20.0625 C-93.19600033 18.43463517 -92.578844 16.80701884 -91.9609375 15.1796875 C-91.5575415 14.10243408 -91.5575415 14.10243408 -91.14599609 13.00341797 C-90.4375 11.1875 -90.4375 11.1875 -89.4375 9.1875 C-91.0875 9.1875 -92.7375 9.1875 -94.4375 9.1875 C-94.56125 9.909375 -94.685 10.63125 -94.8125 11.375 C-95.4279931 14.14471894 -96.32194374 16.5845354 -97.4375 19.1875 C-98.4275 15.8875 -99.4175 12.5875 -100.4375 9.1875 C-102.4175 9.1875 -104.3975 9.1875 -106.4375 9.1875 Z M-46.4375 13.1875 C-47.3005133 15.93198951 -47.0741518 18.39426192 -46.4375 21.1875 C-44.56734906 23.61869623 -43.15611655 24.82819173 -40.4375 26.1875 C-38.1045134 26.22772391 -35.77043334 26.23070247 -33.4375 26.1875 C-34.0975 28.4975 -34.7575 30.8075 -35.4375 33.1875 C-33.1275 33.1875 -30.8175 33.1875 -28.4375 33.1875 C-28.4375 25.2675 -28.4375 17.3475 -28.4375 9.1875 C-30.479375 9.105 -32.52125 9.0225 -34.625 8.9375 C-35.77355469 8.89109375 -36.92210937 8.8446875 -38.10546875 8.796875 C-42.11102424 9.26645947 -43.68891783 10.27603889 -46.4375 13.1875 Z M-25.4375 9.1875 C-25.1075 9.8475 -24.7775 10.5075 -24.4375 11.1875 C-24.16050281 14.52905338 -23.99049296 17.87035874 -23.81640625 21.21875 C-23.73052673 24.30240256 -23.73052673 24.30240256 -21.4375 26.1875 C-17.90532421 25.86639311 -14.80300494 25.30933498 -11.4375 24.1875 C-11.4375 24.8475 -11.4375 25.5075 -11.4375 26.1875 C-9.7875 26.1875 -8.1375 26.1875 -6.4375 26.1875 C-6.7675 25.5275 -7.0975 24.8675 -7.4375 24.1875 C-7.66922827 21.64134991 -7.85644529 19.11353775 -8 16.5625 C-8.04318359 15.85609375 -8.08636719 15.1496875 -8.13085938 14.421875 C-8.23694751 12.67731463 -8.33772889 10.93243303 -8.4375 9.1875 C-10.4175 9.1875 -12.3975 9.1875 -14.4375 9.1875 C-13.7775 9.5175 -13.1175 9.8475 -12.4375 10.1875 C-12.7675 13.8175 -13.0975 17.4475 -13.4375 21.1875 C-15.0875 21.5175 -16.7375 21.8475 -18.4375 22.1875 C-18.7675 17.8975 -19.0975 13.6075 -19.4375 9.1875 C-21.4175 9.1875 -23.3975 9.1875 -25.4375 9.1875 Z M-4.4375 9.1875 C-3.4475 9.6825 -3.4475 9.6825 -2.4375 10.1875 C-2.4375 15.1375 -2.4375 20.0875 -2.4375 25.1875 C-3.0975 25.5175 -3.7575 25.8475 -4.4375 26.1875 C-1.7975 26.1875 0.8425 26.1875 3.5625 26.1875 C3.2325 25.5275 2.9025 24.8675 2.5625 24.1875 C2.33077173 21.64134991 2.14355471 19.11353775 2 16.5625 C1.95681641 15.85609375 1.91363281 15.1496875 1.86914062 14.421875 C1.76305249 12.67731463 1.66227111 10.93243303 1.5625 9.1875 C-0.4175 9.1875 -2.3975 9.1875 -4.4375 9.1875 Z M-6.4375 10.1875 C-6.4375 14.4775 -6.4375 18.7675 -6.4375 23.1875 C-5.4475 23.6825 -5.4475 23.6825 -4.4375 24.1875 C-3.38955725 21.04367176 -3.43229053 19.31546561 -3.75 16.0625 C-3.82863281 15.17304688 -3.90726563 14.28359375 -3.98828125 13.3671875 C-4.13652344 12.64789063 -4.28476563 11.92859375 -4.4375 11.1875 C-5.0975 10.8575 -5.7575 10.5275 -6.4375 10.1875 Z M-78.4375 13.1875 C-80.8669516 16.8316774 -80.59929575 18.89991272 -80.4375 23.1875 C-79.4475 23.5175 -78.4575 23.8475 -77.4375 24.1875 C-77.1075 20.8875 -76.7775 17.5875 -76.4375 14.1875 C-77.0975 13.8575 -77.7575 13.5275 -78.4375 13.1875 Z M-48.4375 21.1875 C-47.4375 23.1875 -47.4375 23.1875 -47.4375 23.1875 Z " fill="#000000" transform="translate(243.4375,15.8125)"/>
<path d="M0 0 C2.56314499 -0.08132187 5.12368418 -0.14064175 7.6875 -0.1875 C8.40873047 -0.21263672 9.12996094 -0.23777344 9.87304688 -0.26367188 C14.47452478 -0.32670582 17.34042162 0.16521296 21 3 C23.57189679 6.42919572 23.502142 9.83939486 23 14 C21.06149673 17.27122427 19.67194714 19.53024775 15.88671875 20.59375 C13.6875 20.875 13.6875 20.875 10 21 C10.33 23.31 10.66 25.62 11 28 C7.37 28 3.74 28 0 28 C0 26.68 0 25.36 0 24 C0.66 24 1.32 24 2 24 C1.85873374 20.93722733 1.71215604 17.87486458 1.5625 14.8125 C1.52318359 13.94818359 1.48386719 13.08386719 1.44335938 12.19335938 C1.23652984 8.04085878 0.99896469 4.05462138 0 0 Z M2 2 C2.33 2.66 2.66 3.32 3 4 C3.09540112 5.49761762 3.13073486 6.99934828 3.1328125 8.5 C3.13474609 9.8303125 3.13474609 9.8303125 3.13671875 11.1875 C3.13285156 12.115625 3.12898437 13.04375 3.125 14 C3.12886719 14.928125 3.13273438 15.85625 3.13671875 16.8125 C3.13542969 17.699375 3.13414062 18.58625 3.1328125 19.5 C3.13168457 20.3146875 3.13055664 21.129375 3.12939453 21.96875 C3 24 3 24 2 26 C4.31 26 6.62 26 9 26 C8.67 23.69 8.34 21.38 8 19 C9.051875 19.061875 10.10375 19.12375 11.1875 19.1875 C15.18387024 18.9909572 16.86899906 18.39429484 20 16 C21.56935594 12.86128812 21.35201103 10.46144178 21 7 C19.53331024 3.77741287 19.53331024 3.77741287 16 2 C11.30405924 1.58518304 6.70106938 1.71373732 2 2 Z " fill="#000000" transform="translate(248,23)"/>
<path d="M0 0 C1.5 2.125 1.5 2.125 2 4 C2.86625 3.195625 3.7325 2.39125 4.625 1.5625 C7.71300617 -0.97588446 9.89817292 -2 14 -2 C16.49312748 -1.19917723 18.64375914 -0.17812043 21 1 C21.66 0.34 22.32 -0.32 23 -1 C24.96717472 -1.03278625 26.9357248 -1.0571069 28.90234375 -1 C31.21531148 -0.94147025 31.21531148 -0.94147025 34.3125 -1.5625 C37 -2 37 -2 40 -1 C40.9075 -1.185625 41.815 -1.37125 42.75 -1.5625 C46.65151984 -2.08770459 49.30695366 -1.25563576 53 0 C55.74835625 11.28870293 55.74835625 11.28870293 54 17 C51.03138915 19.87584176 48.41602718 20.17790148 44.4375 20.25 C41.47345289 20.18835604 38.85415969 19.80253016 36 19 C34.71428571 10.42857143 34.71428571 10.42857143 36 7 C35.01 7 34.02 7 33 7 C32.89031374 13.07252996 32.89031374 13.07252996 34 19 C31.53423437 21.46576563 25.06043814 20.23398821 21.75 20.25 C20.69941406 20.270625 19.64882813 20.29125 18.56640625 20.3125 C17.04080078 20.32023437 17.04080078 20.32023437 15.484375 20.328125 C14.55334961 20.3374707 13.62232422 20.34681641 12.66308594 20.35644531 C9.48954835 19.93167772 7.63258896 18.77871543 5 17 C4.34 16.67 3.68 16.34 3 16 C2.34 17.32 1.68 18.64 1 20 C-10.92689295 20.56396867 -10.92689295 20.56396867 -15 17 C-17.61429492 14.47585319 -17.97469861 13.23192942 -18.375 9.5625 C-17.96672128 5.68385218 -17.53568699 3.94466876 -15 1 C-9.29147157 -2.46988983 -5.99267904 -2.33612912 0 0 Z M-14 3.0625 C-16.2204079 5.91021703 -16.2204079 5.91021703 -16.6875 9.5 C-15.96345188 13.18606315 -15.04904219 14.89000743 -12 17.1328125 C-8.15012145 18.80209578 -4.10240102 18.36483804 0 18 C0.33 16.35 0.66 14.7 1 13 C0.01 13.66 -0.98 14.32 -2 15 C-5 15.375 -5 15.375 -8 15 C-8.99 13.68 -9.98 12.36 -11 11 C-7.04 9.68 -3.08 8.36 1 7 C-0.33563616 2.05536365 -0.33563616 2.05536365 -3 1 C-8.89611889 0.39293926 -8.89611889 0.39293926 -14 3.0625 Z M6.5625 2.5625 C4.46432204 5.83565762 4 8.11417724 4 12 C5.76641172 14.80189446 7.03049822 16.51524911 10 18 C11.70702735 18.06996014 13.41668003 18.08440154 15.125 18.0625 C16.03507812 18.05347656 16.94515625 18.04445313 17.8828125 18.03515625 C18.58148438 18.02355469 19.28015625 18.01195313 20 18 C20.66 16.02 21.32 14.04 22 12 C21.195625 12.7425 21.195625 12.7425 20.375 13.5 C17.29690766 15.44405832 15.57597151 15.608676 12 15 C11.01 13.35 10.02 11.7 9 10 C12.96 9.01 16.92 8.02 21 7 C20.4260261 2.79819816 20.4260261 2.79819816 17 1 C11.45323793 0.39959262 11.45323793 0.39959262 6.5625 2.5625 Z M31.8125 0.9375 C31.214375 1.288125 30.61625 1.63875 30 2 C29.67 1.67 29.34 1.34 29 1 C27.33382885 0.95936168 25.66611905 0.957279 24 1 C24.33 1.66 24.66 2.32 25 3 C25.09685088 5.16490195 25.12979438 7.33293803 25.125 9.5 C25.12757813 10.6653125 25.13015625 11.830625 25.1328125 13.03125 C25 16 25 16 24 18 C26.64 18 29.28 18 32 18 C31.67 17.34 31.34 16.68 31 16 C30.92934383 13.95944995 30.91578024 11.91665743 30.9375 9.875 C30.94652344 8.77929688 30.95554687 7.68359375 30.96484375 6.5546875 C30.97644531 5.71164063 30.98804688 4.86859375 31 4 C32.65 4 34.3 4 36 4 C36.33 3.01 36.66 2.02 37 1 C34.10813214 -0.33304698 34.10813214 -0.33304698 31.8125 0.9375 Z M38 3 C37.93453102 5.51047485 37.93453102 5.51047485 39 8 C41.84825221 10.15543411 44.4948582 11.35089967 48 12 C48 12.99 48 13.98 48 15 C42.58461538 15.36923077 42.58461538 15.36923077 39.625 13.5 C39.08875 13.005 38.5525 12.51 38 12 C38 13.65 38 15.3 38 17 C41.45698565 18.72849282 45.22004417 18.48254755 49 18 C51.73637301 16.51707157 51.73637301 16.51707157 53 14 C53.56605858 11.40482259 53.56605858 11.40482259 52 9 C49.11865987 7.33270768 46.12620895 6.13048768 43 5 C43 4.67 43 4.34 43 4 C45.31 4 47.62 4 50 4 C50 4.66 50 5.32 50 6 C50.66 5.67 51.32 5.34 52 5 C51.67 3.68 51.34 2.36 51 1 C49.20866022 0.94608007 47.41686101 0.90724429 45.625 0.875 C44.62726563 0.85179687 43.62953125 0.82859375 42.6015625 0.8046875 C39.83737827 0.72783152 39.83737827 0.72783152 38 3 Z M23 4 C22.67 5.32 22.34 6.64 22 8 C16.555 9.485 16.555 9.485 11 11 C11.99 12.485 11.99 12.485 13 14 C15.97065509 13.65772428 15.97065509 13.65772428 19 13 C19.33 12.34 19.66 11.68 20 11 C21.32 11 22.64 11 24 11 C24 8.69 24 6.38 24 4 C23.67 4 23.34 4 23 4 Z M-9 11 C-9 11.66 -9 12.32 -9 13 C-6.25038489 13.94607807 -6.25038489 13.94607807 -3 14 C-0.1028059 11.68726558 -0.1028059 11.68726558 2 9 C-1.92896395 9 -5.19893228 10.00299863 -9 11 Z M41 12 C41.33 12.66 41.66 13.32 42 14 C43.65 14 45.3 14 47 14 C44.18490007 11.7226499 44.18490007 11.7226499 41 12 Z " fill="#000000" transform="translate(393,24)"/>
<path d="M0 0 C0.99 0.33 1.98 0.66 3 1 C3 5.29 3 9.58 3 14 C-2 13 -2 13 -3.875 10.75 C-5.19270085 7.52895347 -5.27165005 6.22151347 -4 3 C-2.125 1.125 -2.125 1.125 0 0 Z M-2 3 C-2.25015873 6.41642759 -2.25015873 6.41642759 -2 10 C-0.515 10.99 -0.515 10.99 1 12 C1 9.03 1 6.06 1 3 C0.01 3 -0.98 3 -2 3 Z " fill="#000000" transform="translate(334,26)"/>
<path d="M0 0 C3.73584906 1.47169811 3.73584906 1.47169811 5 4 C2.03 4.66 -0.94 5.32 -4 6 C-2.25 1.125 -2.25 1.125 0 0 Z " fill="#000000" transform="translate(405,26)"/>
<path d="M0 0 C2.9375 0.1875 2.9375 0.1875 3.9375 1.1875 C4.00994053 3.20714199 4.02127188 5.22917124 4 7.25 C3.99097656 8.35472656 3.98195312 9.45945312 3.97265625 10.59765625 C3.96105469 11.45230469 3.94945312 12.30695312 3.9375 13.1875 C-2.8125 12.4375 -2.8125 12.4375 -5.0625 10.1875 C-5.328125 8.3125 -5.328125 8.3125 -5.3125 6.1875 C-5.31765625 5.48625 -5.3228125 4.785 -5.328125 4.0625 C-4.82973343 0.54444188 -3.335244 0.20419861 0 0 Z M-2.0625 2.1875 C-3.39437793 3.29916864 -3.39437793 3.29916864 -3.25 6.125 C-3.39528733 9.29642859 -3.39528733 9.29642859 -1.0625 11.1875 C-0.0725 11.1875 0.9175 11.1875 1.9375 11.1875 C1.9375 8.2175 1.9375 5.2475 1.9375 2.1875 C0.6175 2.1875 -0.7025 2.1875 -2.0625 2.1875 Z " fill="#000000" transform="translate(206.0625,26.8125)"/>
<path d="M0 0 C3.51903714 -0.31991247 5.42015168 -0.37169764 8.4375 1.5625 C10 4 10 4 9.875 7.625 C9 11 9 11 7 13 C3.875 13.125 3.875 13.125 1 13 C0.14256349 8.60563789 -0.08948558 4.47427924 0 0 Z M3 2 C3 4.97 3 7.94 3 11 C4.32 10.67 5.64 10.34 7 10 C7.6878236 7.64632287 7.6878236 7.64632287 8 5 C7.34 4.01 6.68 3.02 6 2 C5.01 2 4.02 2 3 2 Z " fill="#000000" transform="translate(255,27)"/>
<path d="M0 0 C2.375 -0.1875 2.375 -0.1875 5 0 C5.66 0.99 6.32 1.98 7 3 C4.03 3.66 1.06 4.32 -2 5 C-1.34 3.35 -0.68 1.7 0 0 Z " fill="#000000" transform="translate(383,27)"/>
<path d="M0 0 C-0.99 0.66 -1.98 1.32 -3 2 C-8.45964205 6.0092844 -8.45964205 6.0092844 -11 12 C-11.078683 18.05859091 -9.95934441 22.2487867 -6 27 C-3.89424357 28.83300909 -3.89424357 28.83300909 -2 30 C-6.87452354 29.54655595 -9.56374937 28.52912227 -13 25 C-15.77084461 20.28956416 -16.52831942 16.52782621 -15.7109375 11.21484375 C-14.24316547 6.64216935 -11.08286856 3.21600997 -6.97265625 0.81640625 C-4.54984303 -0.18630259 -2.5965504 -0.1442528 0 0 Z " fill="#000000" transform="translate(16,31)"/>
<path d="M0 0 C2.31 0 4.62 0 7 0 C6.34 1.65 5.68 3.3 5 5 C9.29 5 13.58 5 18 5 C17.34 3.35 16.68 1.7 16 0 C18.31 0 20.62 0 23 0 C23 1.65 23 3.3 23 5 C23.99 5 24.98 5 26 5 C26 7.64 26 10.28 26 13 C25.01 12.34 24.02 11.68 23 11 C23 14.63 23 18.26 23 22 C23.99 21.67 24.98 21.34 26 21 C26 22.98 26 24.96 26 27 C25.01 27 24.02 27 23 27 C22.67 27.99 22.34 28.98 22 30 C22.66 30.33 23.32 30.66 24 31 C21.69 31 19.38 31 17 31 C17.33 29.68 17.66 28.36 18 27 C13.71 27 9.42 27 5 27 C5.33 27.99 5.66 28.98 6 30 C4.35 30 2.7 30 1 30 C0.67 29.01 0.34 28.02 0 27 C-1.32 27 -2.64 27 -4 27 C-4 24.69 -4 22.38 -4 20 C-2.35 20.99 -0.7 21.98 1 23 C1 18.71 1 14.42 1 10 C-0.65 10.66 -2.3 11.32 -4 12 C-4 9.69 -4 7.38 -4 5 C-2.68 5 -1.36 5 0 5 C0 3.35 0 1.7 0 0 Z M4 10 C4 14.29 4 18.58 4 23 C8.95 23 13.9 23 19 23 C19 18.71 19 14.42 19 10 C14.05 10 9.1 10 4 10 Z " fill="#000000" transform="translate(33,31)"/>
<path d="M0 0 C5.00833254 0.47698405 8.10624603 1.79846896 12 5 C15.09818479 9.54400436 15.7810678 13.65022057 15 19 C13.29355354 23.67027452 11.21680437 26.35223912 7 29 C3.6875 29.75 3.6875 29.75 1 30 C1.763125 29.4225 2.52625 28.845 3.3125 28.25 C6.71343617 25.4027046 8.59717456 23.20847632 10 19 C10.53462577 12.58449072 9.87599437 9.20199245 6 4 C2.91619214 2.03816941 2.91619214 2.03816941 0 1 C0 0.67 0 0.34 0 0 Z " fill="#000000" transform="translate(73,31)"/>
<path d="M0 0 C0.6875 1.75 0.6875 1.75 1 4 C-0.4375 6.25 -0.4375 6.25 -2 8 C-3.65 7.67 -5.3 7.34 -7 7 C-6.875 5.1875 -6.875 5.1875 -6 3 C-2.9375 1.25 -2.9375 1.25 0 0 Z M-3 3 C-3.99 4.485 -3.99 4.485 -5 6 C-4.01 5.67 -3.02 5.34 -2 5 C-2.33 4.34 -2.66 3.68 -3 3 Z " fill="#000000" transform="translate(188,32)"/>
<path d="M0 0 C1.65 0 3.3 0 5 0 C5.33 0.66 5.66 1.32 6 2 C4.35 1.67 2.7 1.34 1 1 C1 1.66 1 2.32 1 3 C2.32 3.33 3.64 3.66 5 4 C5 5.32 5 6.64 5 8 C3.35 8 1.7 8 0 8 C0 7.01 0 6.02 0 5 C1.32 5.66 2.64 6.32 4 7 C4 6.34 4 5.68 4 5 C1.525 4.01 1.525 4.01 -1 3 C-0.67 2.01 -0.34 1.02 0 0 Z " fill="#000000" transform="translate(115,64)"/>
<path d="M0 0 C1.4540625 0.0309375 1.4540625 0.0309375 2.9375 0.0625 C4.0625 5.8125 4.0625 5.8125 2.9375 8.0625 C0.93795254 8.10504356 -1.06291636 8.10330783 -3.0625 8.0625 C-4.0625 7.0625 -4.0625 7.0625 -4.1875 4.0625 C-4.02164894 0.08207447 -4.02164894 0.08207447 0 0 Z M-2.0625 1.0625 C-2.3925 2.7125 -2.7225 4.3625 -3.0625 6.0625 C-0.5875 6.5575 -0.5875 6.5575 1.9375 7.0625 C2.94861093 4.01336772 2.94861093 4.01336772 1.9375 1.0625 C0.6175 1.0625 -0.7025 1.0625 -2.0625 1.0625 Z " fill="#000000" transform="translate(126.0625,63.9375)"/>
<path d="M0 0 C1.67542976 0.28604898 3.34385343 0.61781233 5 1 C5 2.98 5 4.96 5 7 C3.35 7.33 1.7 7.66 0 8 C0.33 7.34 0.66 6.68 1 6 C0.67 5.67 0.34 5.34 0 5 C-0.625 3 -0.625 3 -1 1 C-0.67 0.67 -0.34 0.34 0 0 Z M1 1 C1 1.99 1 2.98 1 4 C1.99 3.67 2.98 3.34 4 3 C3.67 2.34 3.34 1.68 3 1 C2.34 1 1.68 1 1 1 Z " fill="#000000" transform="translate(135,64)"/>
<path d="M0 0 C1.32 0 2.64 0 4 0 C4 0.66 4 1.32 4 2 C4.66 2 5.32 2 6 2 C6 1.34 6 0.68 6 0 C7.65 0.33 9.3 0.66 11 1 C11 2.98 11 4.96 11 7 C9.35 7.33 7.7 7.66 6 8 C6 7.34 6 6.68 6 6 C5.34 6 4.68 6 4 6 C4 6.66 4 7.32 4 8 C2.35 7.67 0.7 7.34 -1 7 C-1.04254356 5.00045254 -1.04080783 2.99958364 -1 1 C-0.67 0.67 -0.34 0.34 0 0 Z M1 1 C0.67 2.65 0.34 4.3 0 6 C0.99 6.33 1.98 6.66 3 7 C3 5.02 3 3.04 3 1 C2.34 1 1.68 1 1 1 Z M7 1 C7 2.98 7 4.96 7 7 C7.99 6.67 8.98 6.34 10 6 C9.67 4.35 9.34 2.7 9 1 C8.34 1 7.68 1 7 1 Z " fill="#000000" transform="translate(142,64)"/>
<path d="M0 0 C1.65 0.33 3.3 0.66 5 1 C4.34 2.65 3.68 4.3 3 6 C3.66 6.66 4.32 7.32 5 8 C3.02 8 1.04 8 -1 8 C-0.67 7.01 -0.34 6.02 0 5 C0.66 4.67 1.32 4.34 2 4 C2.33 3.01 2.66 2.02 3 1 C1.68 1.33 0.36 1.66 -1 2 C-0.67 1.34 -0.34 0.68 0 0 Z " fill="#000000" transform="translate(165,64)"/>
<path d="M0 0 C1.65 0 3.3 0 5 0 C5 2.64 5 5.28 5 8 C3.35 8 1.7 8 0 8 C0 5.36 0 2.72 0 0 Z M2 1 C1.67 2.65 1.34 4.3 1 6 C1.99 6 2.98 6 4 6 C3.67 4.35 3.34 2.7 3 1 C2.67 1 2.34 1 2 1 Z " fill="#000000" transform="translate(171,64)"/>
<path d="M0 0 C1.98 0.495 1.98 0.495 4 1 C3.01 1 2.02 1 1 1 C1 1.66 1 2.32 1 3 C1.598125 3.12375 2.19625 3.2475 2.8125 3.375 C5 4 5 4 8 6 C6.68 6 5.36 6 4 6 C4 6.66 4 7.32 4 8 C2.35 7.67 0.7 7.34 -1 7 C-0.34 6.67 0.32 6.34 1 6 C1.66 6.33 2.32 6.66 3 7 C3 6.01 3 5.02 3 4 C1.68 4 0.36 4 -1 4 C-0.67 2.68 -0.34 1.36 0 0 Z " fill="#000000" transform="translate(185,64)"/>
<path d="M0 0 C1.65 0 3.3 0 5 0 C5.33 0.66 5.66 1.32 6 2 C4.35 1.67 2.7 1.34 1 1 C1 1.66 1 2.32 1 3 C2.32 3.33 3.64 3.66 5 4 C5 5.32 5 6.64 5 8 C3.35 8 1.7 8 0 8 C0 7.01 0 6.02 0 5 C1.32 5.66 2.64 6.32 4 7 C4 6.34 4 5.68 4 5 C1.525 4.01 1.525 4.01 -1 3 C-0.67 2.01 -0.34 1.02 0 0 Z " fill="#000000" transform="translate(199,64)"/>
<path d="M0 0 C1.2065625 0.0309375 1.2065625 0.0309375 2.4375 0.0625 C2.7675 0.7225 3.0975 1.3825 3.4375 2.0625 C1.7875 2.0625 0.1375 2.0625 -1.5625 2.0625 C-1.5625 3.3825 -1.5625 4.7025 -1.5625 6.0625 C0.0875 5.7325 1.7375 5.4025 3.4375 5.0625 C3.1075 6.0525 2.7775 7.0425 2.4375 8.0625 C0.77138095 8.105221 -0.89632885 8.10313832 -2.5625 8.0625 C-3.5625 7.0625 -3.5625 7.0625 -3.6875 4.0625 C-3.52180824 0.08589776 -3.52180824 0.08589776 0 0 Z " fill="#000000" transform="translate(209.5625,63.9375)"/>
<path d="M0 0 C1.2065625 0.0309375 1.2065625 0.0309375 2.4375 0.0625 C2.7675 0.7225 3.0975 1.3825 3.4375 2.0625 C1.7875 2.0625 0.1375 2.0625 -1.5625 2.0625 C-1.5625 3.3825 -1.5625 4.7025 -1.5625 6.0625 C0.0875 5.7325 1.7375 5.4025 3.4375 5.0625 C3.1075 6.0525 2.7775 7.0425 2.4375 8.0625 C0.77138095 8.105221 -0.89632885 8.10313832 -2.5625 8.0625 C-3.5625 7.0625 -3.5625 7.0625 -3.6875 4.0625 C-3.52180824 0.08589776 -3.52180824 0.08589776 0 0 Z " fill="#000000" transform="translate(221.5625,63.9375)"/>
<path d="M0 0 C1.98 0 3.96 0 6 0 C6 0.33 6 0.66 6 1 C4.35 1 2.7 1 1 1 C1 1.66 1 2.32 1 3 C2.98 3.495 2.98 3.495 5 4 C3.68 4 2.36 4 1 4 C1 4.99 1 5.98 1 7 C2.65 7 4.3 7 6 7 C6 7.33 6 7.66 6 8 C4.02 8 2.04 8 0 8 C0 5.36 0 2.72 0 0 Z " fill="#000000" transform="translate(227,64)"/>
<path d="M0 0 C1.98 0 3.96 0 6 0 C6 1.32 6 2.64 6 4 C6.2981424 5.34164079 6.62243192 6.67851173 7 8 C6.34 8 5.68 8 5 8 C4.34 7.01 3.68 6.02 3 5 C2.67 5.99 2.34 6.98 2 8 C1.34 8 0.68 8 0 8 C0 5.36 0 2.72 0 0 Z M2 1 C2 1.66 2 2.32 2 3 C2.99 3 3.98 3 5 3 C5 2.34 5 1.68 5 1 C4.01 1 3.02 1 2 1 Z " fill="#000000" transform="translate(234,64)"/>
<path d="M0 0 C1.98 0 3.96 0 6 0 C4.68 0.33 3.36 0.66 2 1 C2 1.66 2 2.32 2 3 C2.99 3.33 3.98 3.66 5 4 C4.01 4 3.02 4 2 4 C2 5.32 2 6.64 2 8 C1.34 8 0.68 8 0 8 C0 5.36 0 2.72 0 0 Z " fill="#000000" transform="translate(253,64)"/>
<path d="M0 0 C1.98 0 3.96 0 6 0 C6 0.33 6 0.66 6 1 C4.35 1 2.7 1 1 1 C1 1.66 1 2.32 1 3 C2.65 3 4.3 3 6 3 C5.0409375 3.433125 5.0409375 3.433125 4.0625 3.875 C1.84793921 4.82823451 1.84793921 4.82823451 1 7 C2.65 7 4.3 7 6 7 C6 7.33 6 7.66 6 8 C4.02 8 2.04 8 0 8 C0 5.36 0 2.72 0 0 Z " fill="#000000" transform="translate(264,64)"/>
<path d="M0 0 C1.98 0 3.96 0 6 0 C7.125 5.75 7.125 5.75 6 8 C4.02 8 2.04 8 0 8 C0 5.36 0 2.72 0 0 Z M1 1 C1 2.98 1 4.96 1 7 C2.32 7 3.64 7 5 7 C6.01111093 3.95086772 6.01111093 3.95086772 5 1 C3.68 1 2.36 1 1 1 Z " fill="#000000" transform="translate(272,64)"/>
<path d="M0 0 C0.99 0.495 0.99 0.495 2 1 C2.33 1.99 2.66 2.98 3 4 C3.66 2.68 4.32 1.36 5 0 C5.66 0 6.32 0 7 0 C7.33 0.99 7.66 1.98 8 3 C8.66 2.01 9.32 1.02 10 0 C10.99 0 11.98 0 13 0 C13 2.64 13 5.28 13 8 C12.67 8 12.34 8 12 8 C11.67 6.35 11.34 4.7 11 3 C10.34 4.65 9.68 6.3 9 8 C8.34 8 7.68 8 7 8 C6.67 7.01 6.34 6.02 6 5 C5.01 6.485 5.01 6.485 4 8 C3.34 8 2.68 8 2 8 C1.34 5.36 0.68 2.72 0 0 Z " fill="#000000" transform="translate(283,64)"/>
<path d="M0 0 C0.66 0 1.32 0 2 0 C2 0.99 2 1.98 2 3 C3.32 3 4.64 3 6 3 C6.33 2.01 6.66 1.02 7 0 C7 2.64 7 5.28 7 8 C6.34 7.01 5.68 6.02 5 5 C4.01 4.67 3.02 4.34 2 4 C2 5.32 2 6.64 2 8 C1.34 8 0.68 8 0 8 C0 5.36 0 2.72 0 0 Z " fill="#000000" transform="translate(305,64)"/>
<path d="M0 0 C0.66 0 1.32 0 2 0 C2.99 2.64 3.98 5.28 5 8 C4.34 8 3.68 8 3 8 C3 7.34 3 6.68 3 6 C1.68 6 0.36 6 -1 6 C-1 6.66 -1 7.32 -1 8 C-1.66 7.67 -2.32 7.34 -3 7 C-2.01 4.69 -1.02 2.38 0 0 Z M0 3 C0.33 3.66 0.66 4.32 1 5 C1.33 4.34 1.66 3.68 2 3 C1.34 3 0.68 3 0 3 Z " fill="#000000" transform="translate(325,64)"/>
<path d="M0 0 C1.98 0 3.96 0 6 0 C5.67 0.66 5.34 1.32 5 2 C4.01 2 3.02 2 2 2 C4.64 2.99 7.28 3.98 10 5 C7.44931155 7.35448165 6.28982642 7.98327924 2.75 8.1875 C1.8425 8.125625 0.935 8.06375 0 8 C0.33 7.01 0.66 6.02 1 5 C2.32 5.66 3.64 6.32 5 7 C5 6.34 5 5.68 5 5 C3.35 4.67 1.7 4.34 0 4 C0 2.68 0 1.36 0 0 Z " fill="#000000" transform="translate(331,64)"/>
<path d="M0 0 C0.66 0 1.32 0 2 0 C2.66 2.64 3.32 5.28 4 8 C3.21625 7.814375 2.4325 7.62875 1.625 7.4375 C-0.97089775 6.74037734 -0.97089775 6.74037734 -3 8 C-1.125 1.125 -1.125 1.125 0 0 Z M0 2 C1 5 1 5 1 5 Z " fill="#000000" transform="translate(345,64)"/>
<path d="M0 0 C0.66 0 1.32 0 2 0 C2.66 0.99 3.32 1.98 4 3 C4.66 2.01 5.32 1.02 6 0 C6 2.64 6 5.28 6 8 C4.68 6.68 3.36 5.36 2 4 C1.34 5.32 0.68 6.64 0 8 C0 5.36 0 2.72 0 0 Z " fill="#000000" transform="translate(351,64)"/>
<path d="M0 0 C1.98 0 3.96 0 6 0 C5 2 4 4 3 6 C3.99 6.66 4.98 7.32 6 8 C4.02 8 2.04 8 0 8 C1.875 3.125 1.875 3.125 3 2 C2.01 1.34 1.02 0.68 0 0 Z " fill="#000000" transform="translate(359,64)"/>
<path d="M0 0 C0.66 0 1.32 0 2 0 C2.99 2.64 3.98 5.28 5 8 C4.34 8 3.68 8 3 8 C3 7.34 3 6.68 3 6 C1.68 6 0.36 6 -1 6 C-1 6.66 -1 7.32 -1 8 C-1.66 7.67 -2.32 7.34 -3 7 C-2.01 4.69 -1.02 2.38 0 0 Z M0 3 C0.66 3.66 1.32 4.32 2 5 C2 4.34 2 3.68 2 3 C1.34 3 0.68 3 0 3 Z " fill="#000000" transform="translate(371,64)"/>
<path d="M0 0 C1.2065625 0.0309375 1.2065625 0.0309375 2.4375 0.0625 C2.7675 0.7225 3.0975 1.3825 3.4375 2.0625 C1.7875 2.0625 0.1375 2.0625 -1.5625 2.0625 C-1.5625 3.3825 -1.5625 4.7025 -1.5625 6.0625 C0.0875 5.7325 1.7375 5.4025 3.4375 5.0625 C3.1075 6.0525 2.7775 7.0425 2.4375 8.0625 C0.77138095 8.105221 -0.89632885 8.10313832 -2.5625 8.0625 C-3.5625 7.0625 -3.5625 7.0625 -3.6875 4.0625 C-3.52180824 0.08589776 -3.52180824 0.08589776 0 0 Z " fill="#000000" transform="translate(380.5625,63.9375)"/>
<path d="M0 0 C1.98 0 3.96 0 6 0 C6 2.64 6 5.28 6 8 C4.68 7.01 3.36 6.02 2 5 C1.34 5.99 0.68 6.98 0 8 C0 5.36 0 2.72 0 0 Z M1 1 C1 1.66 1 2.32 1 3 C2.32 2.67 3.64 2.34 5 2 C3.68 1.67 2.36 1.34 1 1 Z " fill="#000000" transform="translate(386,64)"/>
<path d="M0 0 C1.98 0 3.96 0 6 0 C6 0.33 6 0.66 6 1 C4.35 1 2.7 1 1 1 C1 1.66 1 2.32 1 3 C2.65 3 4.3 3 6 3 C5.0409375 3.433125 5.0409375 3.433125 4.0625 3.875 C1.84793921 4.82823451 1.84793921 4.82823451 1 7 C2.98 7 4.96 7 7 7 C7 7.33 7 7.66 7 8 C4.69 8 2.38 8 0 8 C0 5.36 0 2.72 0 0 Z " fill="#000000" transform="translate(394,64)"/>
<path d="M0 0 C1.99954746 -0.04254356 4.00041636 -0.04080783 6 0 C7 1 7 1 7.125 4 C7 7 7 7 6 8 C4.00041636 8.04080783 1.99954746 8.04254356 0 8 C0 5.36 0 2.72 0 0 Z M1 1 C1 2.98 1 4.96 1 7 C2.65 6.67 4.3 6.34 6 6 C5.67 4.35 5.34 2.7 5 1 C3.68 1 2.36 1 1 1 Z " fill="#000000" transform="translate(402,64)"/>
<path d="M0 0 C0.66 0 1.32 0 2 0 C2.66 2.64 3.32 5.28 4 8 C3.21625 7.814375 2.4325 7.62875 1.625 7.4375 C-0.97089775 6.74037734 -0.97089775 6.74037734 -3 8 C-1.125 1.125 -1.125 1.125 0 0 Z M0 2 C1 5 1 5 1 5 Z " fill="#000000" transform="translate(416,64)"/>
<path d="M0 0 C1.99954746 -0.04254356 4.00041636 -0.04080783 6 0 C7 1 7 1 7.125 4 C7 7 7 7 6 8 C4.00041636 8.04080783 1.99954746 8.04254356 0 8 C-1.125 2.25 -1.125 2.25 0 0 Z M1 1 C-0.01111093 4.04913228 -0.01111093 4.04913228 1 7 C2.65 6.67 4.3 6.34 6 6 C5.67 4.35 5.34 2.7 5 1 C3.68 1 2.36 1 1 1 Z " fill="#000000" transform="translate(432,64)"/>
<path d="M0 0 C1.32 1.32 2.64 2.64 4 4 C4.66 2.68 5.32 1.36 6 0 C6 2.64 6 5.28 6 8 C5.34 8 4.68 8 4 8 C3.34 7.01 2.68 6.02 2 5 C1.34 5.99 0.68 6.98 0 8 C0 5.36 0 2.72 0 0 Z " fill="#000000" transform="translate(441,64)"/>
<path d="M0 0 C0.99 1.485 0.99 1.485 2 3 C6.26739643 7.60429615 8.57450531 9.80439559 14.875 10.3125 C18.89927157 10.185339 21.62338601 9.30223681 25 7 C27.36702059 3.95202627 27.36702059 3.95202627 29 1 C29.75 2.625 29.75 2.625 30 5 C27.20935611 10.06450187 24.49677489 13.1677417 19 15 C13.69969854 15.44169179 10.06727774 15.24906761 5.54296875 12.33984375 C2.7510173 9.91544034 1.50729449 7.37633966 0 4 C0 2.68 0 1.36 0 0 Z " fill="#000000" transform="translate(29,75)"/>
</svg>
